<svg width="142" height="56" viewBox="0 0 142 56" fill="none" xmlns="http://www.w3.org/2000/svg">
<g filter="url(#filter0_d)">
<path d="M10.0781 31.9766V44H3.04688V9.875H16.3594C18.9219 9.875 21.1719 10.3438 23.1094 11.2812C25.0625 12.2188 26.5625 13.5547 27.6094 15.2891C28.6562 17.0078 29.1797 18.9688 29.1797 21.1719C29.1797 24.5156 28.0312 27.1562 25.7344 29.0938C23.4531 31.0156 20.2891 31.9766 16.2422 31.9766H10.0781ZM10.0781 26.2812H16.3594C18.2188 26.2812 19.6328 25.8438 20.6016 24.9688C21.5859 24.0938 22.0781 22.8438 22.0781 21.2188C22.0781 19.5469 21.5859 18.1953 20.6016 17.1641C19.6172 16.1328 18.2578 15.6016 16.5234 15.5703H10.0781V26.2812ZM75.7969 18.6406L76.0078 21.4766C77.8047 19.2734 80.2344 18.1719 83.2969 18.1719C86.5625 18.1719 88.8047 19.4609 90.0234 22.0391C91.8047 19.4609 94.3438 18.1719 97.6406 18.1719C100.391 18.1719 102.438 18.9766 103.781 20.5859C105.125 22.1797 105.797 24.5859 105.797 27.8047V44H99V27.8281C99 26.3906 98.7188 25.3438 98.1562 24.6875C97.5938 24.0156 96.6016 23.6797 95.1797 23.6797C93.1484 23.6797 91.7422 24.6484 90.9609 26.5859L90.9844 44H84.2109V27.8516C84.2109 26.3828 83.9219 25.3203 83.3438 24.6641C82.7656 24.0078 81.7812 23.6797 80.3906 23.6797C78.4688 23.6797 77.0781 24.4766 76.2188 26.0703V44H69.4453V18.6406H75.7969ZM109.969 31.0859C109.969 28.5703 110.453 26.3281 111.422 24.3594C112.391 22.3906 113.781 20.8672 115.594 19.7891C117.422 18.7109 119.539 18.1719 121.945 18.1719C125.367 18.1719 128.156 19.2188 130.312 21.3125C132.484 23.4062 133.695 26.25 133.945 29.8438L133.992 31.5781C133.992 35.4688 132.906 38.5938 130.734 40.9531C128.562 43.2969 125.648 44.4688 121.992 44.4688C118.336 44.4688 115.414 43.2969 113.227 40.9531C111.055 38.6094 109.969 35.4219 109.969 31.3906V31.0859ZM116.742 31.5781C116.742 33.9844 117.195 35.8281 118.102 37.1094C119.008 38.375 120.305 39.0078 121.992 39.0078C123.633 39.0078 124.914 38.3828 125.836 37.1328C126.758 35.8672 127.219 33.8516 127.219 31.0859C127.219 28.7266 126.758 26.8984 125.836 25.6016C124.914 24.3047 123.617 23.6562 121.945 23.6562C120.289 23.6562 119.008 24.3047 118.102 25.6016C117.195 26.8828 116.742 28.875 116.742 31.5781Z" fill="white"/>
</g>
<g clip-path="url(#clip0)">
<mask id="path-2-inside-1" fill="white">
<path d="M63.8207 22.294C62.7173 20.5233 61.181 18.9443 59.3407 17.6828C60.8867 16.3672 61.4726 14.8013 61.5008 14.7253C61.6251 14.385 61.4522 14.0136 61.1005 13.8626C60.7497 13.7121 60.3313 13.8324 60.1321 14.1402C60.0584 14.2529 59.5302 14.9988 58.3531 14.9988C57.9445 14.9988 57.4572 14.9087 56.8843 14.6712C53.9776 13.466 50.9007 13.9279 50.3421 14.0263H49.9033C49.2484 12.5667 47.2035 8.4323 44.9055 8.03926C44.0781 7.89699 43.3684 8.14528 42.9602 8.72042C42.4628 9.42162 42.4181 10.7694 43.2959 11.9894C43.621 12.4407 44.0271 13.0814 44.4911 13.873C43.192 13.812 41.2714 13.9027 39.419 14.6712C37.1953 15.5924 36.2701 14.293 36.1721 14.1416C35.9767 13.8365 35.5658 13.7143 35.215 13.8576C34.8648 14.0004 34.6845 14.3638 34.7952 14.7041C34.8224 14.7879 35.4068 16.543 36.962 18.0407C35.247 19.3099 33.8206 20.868 32.8057 22.5879C31.5883 24.6531 30.9707 26.8792 30.9707 29.2044C30.9707 33.1688 32.7926 36.8927 36.1017 39.689C39.3912 42.4693 43.7595 44 48.4026 44C53.0457 44 57.414 42.4693 60.7035 39.689C64.0125 36.8927 65.8345 33.1688 65.8345 29.2044C65.8345 26.7968 65.1378 24.4075 63.8207 22.294ZM40.0375 15.9552C42.1241 15.0895 44.3886 15.2414 45.3005 15.354L45.3822 15.5275V15.5289L46.2221 17.315C46.3888 17.6688 46.8308 17.8319 47.2133 17.6806C47.5961 17.5301 47.7764 17.1217 47.6174 16.7652C47.409 16.2977 47.0443 15.527 46.7754 14.9631C46.6754 14.7536 46.5957 14.5868 46.5525 14.4984C46.5481 14.4885 46.5427 14.4786 46.5374 14.4696C46.5276 14.4448 46.5161 14.4209 46.5034 14.3976C45.7233 12.9914 45.0678 11.9183 44.5562 11.2083C44.0733 10.5381 44.0393 9.75835 44.2264 9.49385C44.253 9.45677 44.3158 9.36806 44.6305 9.42162C45.6658 9.59932 47.4848 12.0935 48.6844 14.9821C48.7975 15.2534 49.0779 15.4325 49.3917 15.4325H50.417C50.4702 15.4325 50.5238 15.427 50.5756 15.4171C50.5907 15.4144 51.3638 15.2674 52.471 15.2674C53.5487 15.2674 54.944 15.4067 56.2659 15.9552C57.1677 16.329 57.943 16.4361 58.5887 16.4001C58.3176 16.6597 58.0046 16.9135 57.6452 17.1412C56.0734 18.1376 54.1035 18.3346 51.7898 17.727C51.507 17.6523 51.203 17.7369 51.0106 17.9429C50.8181 18.1489 50.7719 18.44 50.8907 18.6894C51.0067 18.93 51.2151 19.1212 51.5319 19.4118C52.1134 19.9438 53.0714 20.8227 53.5646 22.2819C52.8029 21.9823 52.0808 21.9416 51.5624 21.912C51.3152 21.898 51.0597 21.8831 50.9499 21.8466L50.8756 21.8227C49.1673 21.263 48.9127 20.7554 48.9127 20.5022C48.9127 20.1141 48.5663 19.799 48.148 19.799C47.7296 19.799 47.3901 20.1141 47.3901 20.5022C47.3901 21.1061 45.4716 22.2039 44.6879 22.4632C44.5979 22.4937 44.5032 22.5217 44.4046 22.5519C43.9659 22.684 43.4383 22.8422 42.8213 23.2086C43.3495 21.7389 44.2803 20.7252 44.8555 20.1001C45.1306 19.7999 45.3126 19.6024 45.4118 19.3969C45.5308 19.1473 45.4846 18.8561 45.2922 18.6501C45.1459 18.4941 44.936 18.4076 44.719 18.4076C44.6501 18.4076 44.5805 18.4161 44.5124 18.4343C42.1809 19.0467 40.1991 18.7501 38.6211 17.5521H38.6202C38.1442 17.1898 37.7516 16.7827 37.431 16.3812C38.1421 16.4704 39.0084 16.382 40.0375 15.9552C42.1241 15.0895 39.0084 16.382 40.0375 15.9552ZM48.4026 42.5937C39.6268 42.5937 32.4865 36.5875 32.4865 29.2044C32.4865 25.2296 34.5382 21.5275 38.1359 18.9729C39.2011 19.6559 40.449 20.0481 41.7392 20.1294C42.1211 20.1533 42.5048 20.1514 42.8864 20.1267C42.0317 21.2034 41.0373 22.8381 40.9191 25.0741C40.9031 25.3751 41.0956 25.6514 41.3973 25.7624C41.4876 25.7956 41.5823 25.8116 41.6762 25.8116C41.799 25.8116 41.9195 25.7844 42.0279 25.7316C42.0521 25.7196 42.0749 25.7061 42.0974 25.6929C42.1543 25.6569 42.2067 25.6141 42.2529 25.5641C43.377 24.34 44.1719 24.1002 44.873 23.8892C44.9852 23.8555 45.0912 23.823 45.1989 23.7879C45.2247 23.7788 47.0703 23.0897 48.1471 22.0139C48.868 22.656 49.9116 22.9983 50.3708 23.1488L50.4392 23.1713C50.7521 23.2746 51.1 23.2943 51.4691 23.3155C52.2845 23.3619 53.2094 23.4146 54.0499 24.3301C54.2598 24.5594 54.6038 24.6388 54.9055 24.5284C55.2072 24.4171 55.3996 24.1408 55.3836 23.8401C55.2762 21.8002 54.4324 20.3967 53.633 19.4593C54.8312 19.5373 56.05 19.3986 57.1647 18.9718C57.4726 18.8539 57.7731 18.718 58.06 18.5609C59.9024 19.7471 61.4342 21.2734 62.5088 22.9977C63.6925 24.8975 64.3186 27.0434 64.3186 29.2042C64.3186 36.5875 57.1783 42.5937 48.4026 42.5937Z"/>
</mask>
<path d="M63.8207 22.294C62.7173 20.5233 61.181 18.9443 59.3407 17.6828C60.8867 16.3672 61.4726 14.8013 61.5008 14.7253C61.6251 14.385 61.4522 14.0136 61.1005 13.8626C60.7497 13.7121 60.3313 13.8324 60.1321 14.1402C60.0584 14.2529 59.5302 14.9988 58.3531 14.9988C57.9445 14.9988 57.4572 14.9087 56.8843 14.6712C53.9776 13.466 50.9007 13.9279 50.3421 14.0263H49.9033C49.2484 12.5667 47.2035 8.4323 44.9055 8.03926C44.0781 7.89699 43.3684 8.14528 42.9602 8.72042C42.4628 9.42162 42.4181 10.7694 43.2959 11.9894C43.621 12.4407 44.0271 13.0814 44.4911 13.873C43.192 13.812 41.2714 13.9027 39.419 14.6712C37.1953 15.5924 36.2701 14.293 36.1721 14.1416C35.9767 13.8365 35.5658 13.7143 35.215 13.8576C34.8648 14.0004 34.6845 14.3638 34.7952 14.7041C34.8224 14.7879 35.4068 16.543 36.962 18.0407C35.247 19.3099 33.8206 20.868 32.8057 22.5879C31.5883 24.6531 30.9707 26.8792 30.9707 29.2044C30.9707 33.1688 32.7926 36.8927 36.1017 39.689C39.3912 42.4693 43.7595 44 48.4026 44C53.0457 44 57.414 42.4693 60.7035 39.689C64.0125 36.8927 65.8345 33.1688 65.8345 29.2044C65.8345 26.7968 65.1378 24.4075 63.8207 22.294ZM40.0375 15.9552C42.1241 15.0895 44.3886 15.2414 45.3005 15.354L45.3822 15.5275V15.5289L46.2221 17.315C46.3888 17.6688 46.8308 17.8319 47.2133 17.6806C47.5961 17.5301 47.7764 17.1217 47.6174 16.7652C47.409 16.2977 47.0443 15.527 46.7754 14.9631C46.6754 14.7536 46.5957 14.5868 46.5525 14.4984C46.5481 14.4885 46.5427 14.4786 46.5374 14.4696C46.5276 14.4448 46.5161 14.4209 46.5034 14.3976C45.7233 12.9914 45.0678 11.9183 44.5562 11.2083C44.0733 10.5381 44.0393 9.75835 44.2264 9.49385C44.253 9.45677 44.3158 9.36806 44.6305 9.42162C45.6658 9.59932 47.4848 12.0935 48.6844 14.9821C48.7975 15.2534 49.0779 15.4325 49.3917 15.4325H50.417C50.4702 15.4325 50.5238 15.427 50.5756 15.4171C50.5907 15.4144 51.3638 15.2674 52.471 15.2674C53.5487 15.2674 54.944 15.4067 56.2659 15.9552C57.1677 16.329 57.943 16.4361 58.5887 16.4001C58.3176 16.6597 58.0046 16.9135 57.6452 17.1412C56.0734 18.1376 54.1035 18.3346 51.7898 17.727C51.507 17.6523 51.203 17.7369 51.0106 17.9429C50.8181 18.1489 50.7719 18.44 50.8907 18.6894C51.0067 18.93 51.2151 19.1212 51.5319 19.4118C52.1134 19.9438 53.0714 20.8227 53.5646 22.2819C52.8029 21.9823 52.0808 21.9416 51.5624 21.912C51.3152 21.898 51.0597 21.8831 50.9499 21.8466L50.8756 21.8227C49.1673 21.263 48.9127 20.7554 48.9127 20.5022C48.9127 20.1141 48.5663 19.799 48.148 19.799C47.7296 19.799 47.3901 20.1141 47.3901 20.5022C47.3901 21.1061 45.4716 22.2039 44.6879 22.4632C44.5979 22.4937 44.5032 22.5217 44.4046 22.5519C43.9659 22.684 43.4383 22.8422 42.8213 23.2086C43.3495 21.7389 44.2803 20.7252 44.8555 20.1001C45.1306 19.7999 45.3126 19.6024 45.4118 19.3969C45.5308 19.1473 45.4846 18.8561 45.2922 18.6501C45.1459 18.4941 44.936 18.4076 44.719 18.4076C44.6501 18.4076 44.5805 18.4161 44.5124 18.4343C42.1809 19.0467 40.1991 18.7501 38.6211 17.5521H38.6202C38.1442 17.1898 37.7516 16.7827 37.431 16.3812C38.1421 16.4704 39.0084 16.382 40.0375 15.9552C42.1241 15.0895 39.0084 16.382 40.0375 15.9552ZM48.4026 42.5937C39.6268 42.5937 32.4865 36.5875 32.4865 29.2044C32.4865 25.2296 34.5382 21.5275 38.1359 18.9729C39.2011 19.6559 40.449 20.0481 41.7392 20.1294C42.1211 20.1533 42.5048 20.1514 42.8864 20.1267C42.0317 21.2034 41.0373 22.8381 40.9191 25.0741C40.9031 25.3751 41.0956 25.6514 41.3973 25.7624C41.4876 25.7956 41.5823 25.8116 41.6762 25.8116C41.799 25.8116 41.9195 25.7844 42.0279 25.7316C42.0521 25.7196 42.0749 25.7061 42.0974 25.6929C42.1543 25.6569 42.2067 25.6141 42.2529 25.5641C43.377 24.34 44.1719 24.1002 44.873 23.8892C44.9852 23.8555 45.0912 23.823 45.1989 23.7879C45.2247 23.7788 47.0703 23.0897 48.1471 22.0139C48.868 22.656 49.9116 22.9983 50.3708 23.1488L50.4392 23.1713C50.7521 23.2746 51.1 23.2943 51.4691 23.3155C52.2845 23.3619 53.2094 23.4146 54.0499 24.3301C54.2598 24.5594 54.6038 24.6388 54.9055 24.5284C55.2072 24.4171 55.3996 24.1408 55.3836 23.8401C55.2762 21.8002 54.4324 20.3967 53.633 19.4593C54.8312 19.5373 56.05 19.3986 57.1647 18.9718C57.4726 18.8539 57.7731 18.718 58.06 18.5609C59.9024 19.7471 61.4342 21.2734 62.5088 22.9977C63.6925 24.8975 64.3186 27.0434 64.3186 29.2042C64.3186 36.5875 57.1783 42.5937 48.4026 42.5937Z" fill="white"/>
<path d="M59.3407 17.6828L36.658 -8.97231L1.81168 20.6809L39.5516 46.5513L59.3407 17.6828ZM61.5008 14.7253L94.3293 26.8614L94.3523 26.7994L94.3749 26.7373L61.5008 14.7253ZM61.1005 13.8626L74.9129 -18.2967L74.8999 -18.3023L61.1005 13.8626ZM60.1321 14.1402L89.4154 33.3102L89.466 33.233L89.5161 33.1556L60.1321 14.1402ZM56.8843 14.6712L70.2921 -17.6589L70.2897 -17.6599L56.8843 14.6712ZM50.3421 14.0263V49.0263H53.3987L56.409 48.4964L50.3421 14.0263ZM49.9033 14.0263L17.9704 28.3543L27.2458 49.0263H49.9033V14.0263ZM44.9055 8.03926L38.9748 42.5331L38.9899 42.5357L39.005 42.5383L44.9055 8.03926ZM42.9602 8.72042L14.4198 -11.5392L14.4126 -11.5289L42.9602 8.72042ZM43.2959 11.9894L14.8854 32.4307L14.8912 32.4387L14.897 32.4468L43.2959 11.9894ZM44.4911 13.873L42.8501 48.8345L107.323 51.8606L74.6871 -3.82438L44.4911 13.873ZM39.419 14.6712L52.8144 47.0063L52.8225 47.003L52.8307 46.9996L39.419 14.6712ZM36.1721 14.1416L6.69725 33.0157L6.74519 33.0906L6.79351 33.1652L36.1721 14.1416ZM35.215 13.8576L48.431 46.2665L48.4432 46.2616L48.4553 46.2566L35.215 13.8576ZM34.7952 14.7041L68.08 3.88189L68.0777 3.87482L34.7952 14.7041ZM36.962 18.0407L57.7821 46.1747L91.0602 21.548L61.2405 -7.16957L36.962 18.0407ZM32.8057 22.5879L2.66231 4.80089L2.65842 4.80749L2.65452 4.8141L32.8057 22.5879ZM36.1017 39.689L58.6952 12.9582L58.6924 12.9559L36.1017 39.689ZM60.7035 39.689L38.1127 12.9559L38.11 12.9582L60.7035 39.689ZM40.0375 15.9552L53.4462 48.2848L53.4501 48.2832L40.0375 15.9552ZM45.3005 15.354L76.9674 0.44728L68.7466 -17.0164L49.5902 -19.3822L45.3005 15.354ZM45.3822 15.5275H80.3822V7.70156L77.0491 0.620864L45.3822 15.5275ZM45.3822 15.5289H10.3822V23.3476L13.7094 30.4231L45.3822 15.5289ZM46.2221 17.315L14.5493 32.2092L14.5549 32.2211L14.5605 32.233L46.2221 17.315ZM47.2133 17.6806L34.4062 -14.8921L34.3716 -14.8784L34.3369 -14.8647L47.2133 17.6806ZM47.6174 16.7652L15.6508 31.0177L15.6519 31.0201L47.6174 16.7652ZM46.7754 14.9631L78.3688 -0.0986767L78.3642 -0.108502L78.3595 -0.118325L46.7754 14.9631ZM46.5525 14.4984L14.6249 28.8381L14.8577 29.3565L15.1073 29.867L46.5525 14.4984ZM46.5374 14.4696L13.9875 27.3344L14.9874 29.8641L16.3661 32.209L46.5374 14.4696ZM46.5034 14.3976L77.2317 -2.35853L77.171 -2.46997L77.1094 -2.58097L46.5034 14.3976ZM44.5562 11.2083L16.1595 31.6687L16.16 31.6693L44.5562 11.2083ZM44.2264 9.49385L15.8039 -10.9307L15.7282 -10.8253L15.6532 -10.7193L44.2264 9.49385ZM44.6305 9.42162L50.5514 -25.0739L50.527 -25.0781L50.5025 -25.0823L44.6305 9.42162ZM48.6844 14.9821L16.3611 28.4059L16.3694 28.4261L16.3779 28.4463L48.6844 14.9821ZM50.5756 15.4171L44.3118 -19.0178L44.163 -18.9907L44.0145 -18.9624L50.5756 15.4171ZM56.2659 15.9552L42.8522 48.2828L42.8635 48.2875L56.2659 15.9552ZM58.5887 16.4001L82.789 41.6854L151.227 -23.8162L56.6415 -18.5457L58.5887 16.4001ZM57.6452 17.1412L38.9147 -12.4252L38.9049 -12.419L57.6452 17.1412ZM51.7898 17.727L42.8486 51.5657L42.8746 51.5725L42.9006 51.5794L51.7898 17.727ZM51.0106 17.9429L25.4346 -5.94998L25.4346 -5.94997L51.0106 17.9429ZM50.8907 18.6894L19.2887 33.7332L19.3273 33.8143L19.3663 33.8953L50.8907 18.6894ZM51.5319 19.4118L27.8725 45.2038L27.8889 45.2189L27.9054 45.234L51.5319 19.4118ZM53.5646 22.2819L40.7523 54.8526L110.837 82.4219L86.7218 11.0748L53.5646 22.2819ZM51.5624 21.912L53.5619 -13.0309L53.5522 -13.0314L53.5424 -13.032L51.5624 21.912ZM50.9499 21.8466L61.9953 -11.3648L61.83 -11.4198L61.6641 -11.4731L50.9499 21.8466ZM50.8756 21.8227L39.9771 55.0826L40.0691 55.1128L40.1613 55.1424L50.8756 21.8227ZM44.6879 22.4632L33.6942 -10.7653L33.5764 -10.7264L33.4588 -10.6866L44.6879 22.4632ZM44.4046 22.5519L54.4957 56.0657L54.5778 56.0409L54.6598 56.0158L44.4046 22.5519ZM42.8213 23.2086L9.88365 11.3718L-23.0583 103.037L60.6923 53.3023L42.8213 23.2086ZM44.8555 20.1001L70.6105 43.7999L70.6364 43.7717L70.6622 43.7435L44.8555 20.1001ZM45.4118 19.3969L76.9312 34.6131L76.9686 34.5355L77.0057 34.4578L45.4118 19.3969ZM45.2922 18.6501L70.8682 -5.24273L70.8472 -5.26515L70.8262 -5.28755L45.2922 18.6501ZM44.5124 18.4343L53.4054 52.2856L53.4609 52.271L53.5163 52.2563L44.5124 18.4343ZM38.6211 17.5521L59.7855 -10.3239L50.4023 -17.4479H38.6211V17.5521ZM38.6202 17.5521L17.425 45.4045L26.8175 52.5521H38.6202V17.5521ZM37.431 16.3812L41.7901 -18.3463L-43.6506 -29.0711L10.0803 38.2202L37.431 16.3812ZM38.1359 18.9729L57.029 -10.4898L37.1384 -23.2448L17.8724 -9.56467L38.1359 18.9729ZM41.7392 20.1294L39.5382 55.0602L39.5459 55.0607L39.5536 55.0611L41.7392 20.1294ZM42.8864 20.1267L70.2987 41.8883L119.35 -19.8995L40.6241 -14.8001L42.8864 20.1267ZM40.9191 25.0741L75.8699 26.9303L75.8704 26.9206L40.9191 25.0741ZM41.3973 25.7624L53.4861 -7.0836L53.4793 -7.08611L41.3973 25.7624ZM42.0279 25.7316L57.3439 57.2026L57.4848 57.134L57.6252 57.0641L42.0279 25.7316ZM42.0974 25.6929L59.7913 55.891L60.3094 55.5875L60.8167 55.2664L42.0974 25.6929ZM42.2529 25.5641L67.9601 49.3157L67.9963 49.2765L68.0324 49.2373L42.2529 25.5641ZM44.873 23.8892L54.9573 57.405L54.9634 57.4032L44.873 23.8892ZM45.1989 23.7879L56.054 57.062L56.4369 56.9371L56.8169 56.8034L45.1989 23.7879ZM48.1471 22.0139L71.4272 -4.12113L46.7691 -26.0856L23.409 -2.7455L48.1471 22.0139ZM50.3708 23.1488L61.3186 -10.095L61.2955 -10.1026L61.2724 -10.1101L50.3708 23.1488ZM50.4392 23.1713L61.4077 -10.0656L61.3974 -10.069L61.387 -10.0724L50.4392 23.1713ZM51.4691 23.3155L49.4675 58.2582L49.4798 58.2589L51.4691 23.3155ZM54.0499 24.3301L79.8684 0.699478L79.8498 0.679188L79.8312 0.658926L54.0499 24.3301ZM54.9055 24.5284L66.9348 57.3962L66.9743 57.3818L67.0138 57.3672L54.9055 24.5284ZM55.3836 23.8401L20.4321 25.6815L20.4325 25.6897L20.433 25.698L55.3836 23.8401ZM53.633 19.4593L55.9068 -15.4668L-26.7347 -20.847L27.0011 42.1691L53.633 19.4593ZM57.1647 18.9718L44.6555 -13.7164L44.6489 -13.7139L57.1647 18.9718ZM58.06 18.5609L77.0076 -10.8668L59.506 -22.1356L41.2487 -12.1373L58.06 18.5609ZM62.5088 22.9977L92.2151 4.48985L92.212 4.48492L62.5088 22.9977ZM93.5254 3.78382C89.6796 -2.38784 84.6516 -7.40059 79.1298 -11.1857L39.5516 46.5513C37.7104 45.2892 35.7549 43.4345 34.1159 40.8042L93.5254 3.78382ZM82.0235 44.3379C90.2113 37.3703 93.4275 29.3009 94.3293 26.8614L28.6722 2.58918C29.1994 1.1632 29.9499 -0.575965 31.0713 -2.42318C32.1673 -4.22871 33.9256 -6.64713 36.658 -8.97231L82.0235 44.3379ZM94.3749 26.7373C101.471 7.31743 90.6927 -11.5193 74.9129 -18.2967L47.2881 46.0218C32.2118 39.5465 21.7794 21.4525 28.6266 2.71323L94.3749 26.7373ZM74.8999 -18.3023C59.7858 -24.7865 40.7436 -20.3209 30.7481 -4.87507L89.5161 33.1556C79.919 47.9856 61.7136 52.2107 47.3011 46.0274L74.8999 -18.3023ZM30.8487 -5.02967C33.6542 -9.31517 42.406 -20.0012 58.3531 -20.0012V49.9988C76.6544 49.9988 86.4626 37.8209 89.4154 33.3102L30.8487 -5.02967ZM58.3531 -20.0012C63.1817 -20.0012 67.2444 -18.9228 70.2921 -17.6589L43.4765 47.0012C47.67 48.7403 52.7073 49.9988 58.3531 49.9988V-20.0012ZM70.2897 -17.6599C57.8035 -22.837 46.4033 -20.8185 44.2751 -20.4439L56.409 48.4964C55.2129 48.7069 53.7696 48.8859 52.0672 48.8536C50.502 48.8238 47.3273 48.5978 43.479 47.0022L70.2897 -17.6599ZM50.3421 -20.9737H49.9033V49.0263H50.3421V-20.9737ZM81.8362 -0.30173C81.1523 -1.82581 79.4427 -5.48785 76.7501 -9.35754C75.4069 -11.2879 73.1203 -14.2942 69.7867 -17.2506C66.7139 -19.9757 60.325 -24.8317 50.8061 -26.4598L39.005 42.5383C30.6351 41.1068 25.3636 36.9149 23.341 35.1212C21.0576 33.0961 19.7539 31.2884 19.2911 30.6232C18.3592 29.2839 17.9994 28.4188 17.9704 28.3543L81.8362 -0.30173ZM50.8363 -26.4546C39.8475 -28.344 24.2976 -25.4542 14.4198 -11.5392L71.5005 28.98C62.4393 41.7448 48.3086 44.1379 38.9748 42.5331L50.8363 -26.4546ZM14.4126 -11.5289C3.36836 4.04122 7.35005 21.9576 14.8854 32.4307L71.7063 -8.45189C75.0265 -3.83735 77.1558 1.81645 77.543 7.95842C77.8986 13.5996 76.827 21.4706 71.5077 28.9698L14.4126 -11.5289ZM14.897 32.4468C14.7085 32.185 14.567 31.9778 14.4765 31.8428C14.3839 31.7046 14.32 31.605 14.2865 31.5521C14.224 31.4535 14.2258 31.4522 14.295 31.5704L74.6871 -3.82438C73.984 -5.02407 72.9455 -6.73169 71.6948 -8.46796L14.897 32.4468ZM46.132 -21.0885C42.1481 -21.2755 34.4704 -21.1682 26.0074 -17.6573L52.8307 46.9996C50.2988 48.05 48.1044 48.4874 46.5757 48.6817C45.033 48.8778 43.7627 48.8773 42.8501 48.8345L46.132 -21.0885ZM26.0236 -17.664C32.5824 -20.3811 41.7782 -21.3115 51.0508 -17.2465C59.0648 -13.7333 63.4945 -8.05757 65.5508 -4.88194L6.79351 33.1652C8.94782 36.4921 13.889 42.8933 22.9461 46.8637C33.2617 51.3859 44.0319 50.6446 52.8144 47.0063L26.0236 -17.664ZM65.647 -4.73246C55.7591 -20.1741 36.9387 -24.6566 21.9746 -18.5413L48.4553 46.2566C34.1929 52.0851 16.1944 47.847 6.69725 33.0157L65.647 -4.73246ZM21.999 -18.5513C6.21415 -12.1144 -4.77829 6.19896 1.51266 25.5334L68.0777 3.87482C74.1472 22.5287 63.5154 40.1153 48.431 46.2665L21.999 -18.5513ZM1.51036 25.5264C2.24268 27.7787 5.06192 35.911 12.6836 43.2509L61.2405 -7.16957C63.7236 -4.77824 65.2238 -2.41385 66.0978 -0.796436C66.9959 0.865645 67.6149 2.45157 68.08 3.88189L1.51036 25.5264ZM16.142 -10.0934C10.9423 -6.24552 6.23421 -1.25235 2.66231 4.80089L62.949 40.3749C61.4069 42.9883 59.5516 44.8652 57.7821 46.1747L16.142 -10.0934ZM2.65452 4.8141C-1.63282 12.0871 -4.0293 20.425 -4.0293 29.2044H65.9707C65.9707 33.3333 64.8094 37.2191 62.9568 40.3617L2.65452 4.8141ZM-4.0293 29.2044C-4.0293 44.5035 3.15575 57.6714 13.5109 66.422L58.6924 12.9559C62.4295 16.1139 65.9707 21.8342 65.9707 29.2044H-4.0293ZM13.5082 66.4197C23.6283 74.9735 36.1856 79 48.4026 79V8.99999C51.3334 8.99999 55.154 9.96512 58.6952 12.9582L13.5082 66.4197ZM48.4026 79C60.6195 79 73.1768 74.9735 83.297 66.4197L38.11 12.9582C41.6511 9.96512 45.4718 8.99999 48.4026 8.99999V79ZM83.2942 66.422C93.6494 57.6714 100.834 44.5035 100.834 29.2044H30.8345C30.8345 21.8342 34.3756 16.1139 38.1127 12.9559L83.2942 66.422ZM100.834 29.2044C100.834 20.0147 98.1751 11.2446 93.5244 3.78222L34.1169 40.8058C32.1006 37.5705 30.8345 33.5789 30.8345 29.2044H100.834ZM53.4501 48.2832C49.8474 49.7779 46.8355 50.1276 45.195 50.2255C43.4566 50.3293 42.038 50.2169 41.0108 50.0901L49.5902 -19.3822C46.8037 -19.7263 37.1886 -20.7557 26.6248 -16.3728L53.4501 48.2832ZM13.6336 30.2606L13.7153 30.4342L77.0491 0.620864L76.9674 0.44728L13.6336 30.2606ZM10.3822 15.5275V15.5289H80.3822V15.5275H10.3822ZM13.7094 30.4231L14.5493 32.2092L77.8949 2.42089L77.055 0.634782L13.7094 30.4231ZM14.5605 32.233C23.2298 50.6325 43.9485 56.6121 60.0897 50.2259L34.3369 -14.8647C49.7131 -20.9482 69.5477 -15.295 77.8837 2.39708L14.5605 32.233ZM60.0204 50.2532C77.2234 43.4893 88.6086 22.7493 79.583 2.51021L15.6519 31.0201C6.94427 11.494 17.9689 -8.42912 34.4062 -14.8921L60.0204 50.2532ZM79.584 2.51258C79.1632 1.5686 78.6033 0.393065 78.3688 -0.0986767L15.1821 30.0249C15.3004 30.2732 15.4242 30.5342 15.5317 30.7632C15.5849 30.8767 15.6252 30.9635 15.6531 31.0239C15.6851 31.0933 15.6804 31.084 15.6508 31.0177L79.584 2.51258ZM78.3595 -0.118325C78.3003 -0.242183 78.1302 -0.599301 77.9978 -0.870241L15.1073 29.867C15.0919 29.8356 15.0805 29.8121 15.0745 29.7997C15.0681 29.7866 15.0643 29.7786 15.0636 29.7771C15.0627 29.7753 15.0671 29.7845 15.0792 29.8098C15.1049 29.8633 15.1392 29.9351 15.1914 30.0446L78.3595 -0.118325ZM78.4801 0.158677C77.8014 -1.35242 77.1422 -2.53278 76.7088 -3.26993L16.3661 32.209C15.9433 31.49 15.2947 30.3294 14.6249 28.8381L78.4801 0.158677ZM79.0873 1.60475C78.45 -0.00768852 77.7859 -1.34224 77.2317 -2.35853L15.775 31.1537C15.2463 30.1841 14.6053 28.8974 13.9875 27.3344L79.0873 1.60475ZM77.1094 -2.58097C76.1103 -4.38202 74.671 -6.86764 72.9524 -9.25277L16.16 31.6693C15.9252 31.3435 15.764 31.1017 15.682 30.9764C15.6376 30.9086 15.6056 30.8583 15.5863 30.8277C15.5764 30.812 15.5691 30.8003 15.5644 30.7928C15.5621 30.789 15.5603 30.7862 15.5592 30.7843C15.558 30.7825 15.5575 30.7815 15.5575 30.7815C15.5575 30.7815 15.558 30.7824 15.5591 30.7842C15.5602 30.786 15.5618 30.7886 15.5639 30.7921C15.5681 30.7992 15.5743 30.8095 15.5824 30.8232C15.5988 30.8507 15.6218 30.89 15.6517 30.9415C15.7122 31.046 15.7939 31.1897 15.8974 31.3762L77.1094 -2.58097ZM72.9529 -9.25218C76.1698 -4.78744 78.0512 0.195177 78.7735 5.14654C79.1349 7.62381 79.2989 10.7254 78.8436 14.2559C78.461 17.2225 77.2852 23.3662 72.7996 29.707L15.6532 -10.7193C11.0741 -4.24629 9.83232 2.09415 9.41858 5.30222C8.9321 9.07426 9.09977 12.4623 9.50664 15.2513C10.3199 20.8262 12.4597 26.5338 16.1595 31.6687L72.9529 -9.25218ZM72.6488 29.9184C72.7092 29.8344 72.0422 30.7829 71.15 31.8558C70.1846 33.0168 68.9036 34.404 67.2677 35.8315C63.8405 38.8219 59.9091 41.0712 55.7273 42.5128C48.012 45.1725 41.5134 44.3944 38.7585 43.9255L50.5025 -25.0823C47.4329 -25.6047 40.7455 -26.3652 32.9136 -23.6653C28.6734 -22.2035 24.7016 -19.9285 21.2454 -16.9127C19.5949 -15.4726 18.3021 -14.0727 17.327 -12.9C16.4251 -11.8154 15.7502 -10.856 15.8039 -10.9307L72.6488 29.9184ZM38.7096 43.9172C33.2078 42.9728 29.2041 40.9027 27.0234 39.5922C24.6988 38.195 23.0221 36.7954 22.0084 35.8752C20.0205 34.0709 18.8186 32.4962 18.3151 31.8057C17.2407 30.3321 16.6949 29.2098 16.3611 28.4059L81.0078 1.5582C79.4743 -2.13423 77.4192 -5.94792 74.8766 -9.43514C73.639 -11.1325 71.7132 -13.5446 69.0556 -15.9568C67.4132 -17.4477 60.9366 -23.2914 50.5514 -25.0739L38.7096 43.9172ZM16.3779 28.4463C22.3616 42.8038 36.1169 50.4325 49.3917 50.4325V-19.5675C62.0389 -19.5675 75.2335 -12.297 80.991 1.51785L16.3779 28.4463ZM49.3917 50.4325H50.417V-19.5675H49.3917V50.4325ZM50.417 50.4325C52.8434 50.4325 55.0975 50.1858 57.1368 49.7966L44.0145 -18.9624C45.9501 -19.3318 48.0971 -19.5675 50.417 -19.5675V50.4325ZM56.8395 49.8521C57.0034 49.8222 56.7552 49.8677 56.5824 49.8976C56.4068 49.928 56.2305 49.9569 56.0535 49.9842C55.7018 50.0384 55.3447 50.0865 54.9807 50.127C54.2765 50.2053 53.4354 50.2674 52.471 50.2674V-19.7326C50.3993 -19.7326 48.6181 -19.5969 47.2468 -19.4445C46.5493 -19.3669 45.9269 -19.2816 45.3914 -19.199C45.1225 -19.1576 44.8747 -19.1167 44.6496 -19.0778C44.4273 -19.0393 44.1517 -18.9887 44.3118 -19.0178L56.8395 49.8521ZM52.471 50.2674C51.5464 50.2674 50.2832 50.2108 48.7695 49.9696C47.268 49.7304 45.2079 49.2602 42.8522 48.2828L69.6795 -16.3724C62.5723 -19.3214 56.1354 -19.7326 52.471 -19.7326V50.2674ZM42.8635 48.2875C48.2751 50.5307 54.2812 51.6945 60.536 51.3459L56.6415 -18.5457C61.6049 -18.8222 66.0603 -17.8727 69.6682 -16.3771L42.8635 48.2875ZM34.3885 -8.88516C35.5988 -10.0435 37.0975 -11.274 38.9147 -12.4252L76.3757 46.7075C78.9117 45.1009 81.0364 43.3629 82.789 41.6854L34.3885 -8.88516ZM38.9049 -12.419C47.7391 -18.0196 56.4318 -17.2406 60.679 -16.1254L42.9006 51.5794C51.7752 53.9097 64.4078 54.2948 76.3855 46.7013L38.9049 -12.419ZM60.731 -16.1117C48.5172 -19.3389 34.7911 -15.9657 25.4346 -5.94998L76.5865 41.8358C67.6148 51.4395 54.4969 54.6435 42.8486 51.5657L60.731 -16.1117ZM25.4346 -5.94997C15.6252 4.55043 12.8639 20.2369 19.2887 33.7332L82.4926 3.64565C88.6799 16.6431 86.0111 31.7473 76.5865 41.8358L25.4346 -5.94997ZM19.3663 33.8953C21.4663 38.2488 23.996 41.2433 25.5082 42.8691C26.2474 43.6639 26.8801 44.2738 27.2205 44.5968C27.5434 44.9033 27.8478 45.1812 27.8725 45.2038L75.1913 -6.38031C74.712 -6.82007 75.7252 -5.9221 76.7639 -4.80538C78.0636 -3.40798 80.4311 -0.629405 82.415 3.48354L19.3663 33.8953ZM27.9054 45.234C28.1465 45.4546 23.0045 41.1728 20.4075 33.4891L86.7218 11.0748C83.1383 0.47261 76.0803 -5.56703 75.1584 -6.41051L27.9054 45.234ZM66.3769 -10.2887C59.8472 -12.8573 54.0094 -13.0053 53.5619 -13.0309L49.563 56.8548C50.1522 56.8885 45.7585 56.8218 40.7523 54.8526L66.3769 -10.2887ZM53.5424 -13.032C53.2781 -13.047 53.7989 -13.0216 54.4246 -12.9638C54.7646 -12.9324 55.5038 -12.8593 56.45 -12.7118C56.9394 -12.6355 57.6363 -12.5159 58.4689 -12.3339C59.2594 -12.1612 60.5031 -11.8611 61.9953 -11.3648L39.9045 55.058C42.6481 55.9705 44.8989 56.3329 45.6643 56.4523C46.697 56.6133 47.5362 56.6979 47.9846 56.7393C48.4757 56.7847 48.8798 56.8125 49.106 56.8272C49.3333 56.842 49.5355 56.8533 49.5824 56.8559L53.5424 -13.032ZM61.6641 -11.4731L61.5898 -11.497L40.1613 55.1424L40.2356 55.1663L61.6641 -11.4731ZM61.774 -11.4372C62.8016 -11.1005 66.9818 -9.69763 71.5176 -5.95828C76.6711 -1.70966 83.9127 7.18496 83.9127 20.5022H13.9127C13.9127 34.0726 21.2816 43.3476 26.9895 48.0533C32.0796 52.2496 37.2412 54.1862 39.9771 55.0826L61.774 -11.4372ZM83.9127 20.5022C83.9127 -2.03126 64.9553 -15.201 48.148 -15.201V54.799C32.1773 54.799 13.9127 42.2594 13.9127 20.5022H83.9127ZM48.148 -15.201C30.9189 -15.201 12.3901 -1.64242 12.3901 20.5022H82.3901C82.3901 41.8706 64.5404 54.799 48.148 54.799V-15.201ZM12.3901 20.5022C12.3901 11.6195 15.7514 5.26311 17.4429 2.49577C19.3288 -0.589692 21.2864 -2.67999 22.3419 -3.73441C24.4698 -5.8601 26.3388 -7.12638 27.0125 -7.57238C28.0891 -8.28505 30.2453 -9.62428 33.6942 -10.7653L55.6817 55.6918C59.9142 54.2914 63.4215 52.2737 65.6532 50.7963C66.9045 49.9679 69.3022 48.2977 71.8142 45.7882C73.0618 44.5419 75.1754 42.2647 77.1693 39.0026C78.9688 36.0586 82.3901 29.5358 82.3901 20.5022H12.3901ZM33.4588 -10.6866C33.8423 -10.8164 34.1346 -10.907 34.224 -10.9346C34.2724 -10.9495 34.306 -10.9597 34.2861 -10.9536C34.2847 -10.9532 34.2151 -10.9321 34.1495 -10.912L54.6598 56.0158C54.6434 56.0208 54.6227 56.0271 54.6696 56.0129C54.698 56.0042 54.7794 55.9795 54.875 55.9499C55.059 55.8931 55.4436 55.7734 55.9171 55.613L33.4588 -10.6866ZM34.3136 -10.9618C33.5963 -10.7458 29.515 -9.59575 24.9503 -6.885L60.6923 53.3023C59.0833 54.2578 57.5685 54.9483 56.2849 55.4438C55.1433 55.8845 54.1846 56.1593 54.4957 56.0657L34.3136 -10.9618ZM75.759 35.0455C73.6849 40.8169 70.1506 44.2996 70.6105 43.7999L19.1006 -3.59977C18.4099 -2.84927 13.014 2.66103 9.88365 11.3718L75.759 35.0455ZM70.6622 43.7435C70.6845 43.7192 70.8956 43.4896 71.1103 43.25C71.3359 42.9982 71.7636 42.5161 72.2659 41.9035C73.1999 40.7642 75.1816 38.2372 76.9312 34.6131L13.8925 4.18081C15.5428 0.762148 17.384 -1.56347 18.1334 -2.47753C18.7887 -3.27685 19.4273 -3.95655 19.0488 -3.54343L70.6622 43.7435ZM77.0057 34.4578C83.4396 20.9609 80.6842 5.26474 70.8682 -5.24273L19.7162 42.543C10.2851 32.4475 7.62201 17.3337 13.818 4.33611L77.0057 34.4578ZM70.8262 -5.28755C63.6843 -12.9058 54.042 -16.5924 44.719 -16.5924V53.4076C35.83 53.4076 26.6076 49.894 19.7582 42.5878L70.8262 -5.28755ZM44.719 -16.5924C41.777 -16.5924 38.6708 -16.2296 35.5084 -15.3878L53.5163 52.2563C50.4901 53.0619 47.5231 53.4076 44.719 53.4076V-16.5924ZM35.6194 -15.4171C38.1144 -16.0726 41.8895 -16.6274 46.467 -15.942C51.2419 -15.2271 55.8576 -13.3061 59.7855 -10.3239L17.4568 45.428C29.4745 54.5523 43.1752 54.9731 53.4054 52.2856L35.6194 -15.4171ZM38.6211 -17.4479H38.6202V52.5521H38.6211V-17.4479ZM59.8155 -10.3004C62.0043 -8.63482 63.6242 -6.90737 64.7816 -5.45781L10.0803 38.2202C11.879 40.4728 14.2841 43.0144 17.425 45.4045L59.8155 -10.3004ZM33.0718 51.1087C40.4172 52.0307 47.3934 50.7952 53.4462 48.2848L26.6287 -16.3744C30.6234 -18.0312 35.867 -19.0898 41.7901 -18.3463L33.0718 51.1087ZM53.4501 48.2832C53.7111 48.1749 53.891 48.1003 54.0079 48.0518C54.0663 48.0275 54.1094 48.0097 54.1391 47.9973C54.154 47.9912 54.166 47.9862 54.1751 47.9824C54.1797 47.9805 54.184 47.9787 54.1879 47.9771C54.1899 47.9763 54.1921 47.9753 54.1944 47.9744C54.1964 47.9735 54.1998 47.9721 54.2038 47.9705C54.2058 47.9696 54.2091 47.9683 54.2132 47.9666C54.2151 47.9658 54.2193 47.9641 54.2216 47.9631C54.2248 47.9617 54.2325 47.9585 54.237 47.9567C54.2439 47.9538 54.2628 47.9459 54.2747 47.9409C54.3008 47.93 54.4262 47.8772 54.5255 47.8349C73.1983 2.47032 27.8588 -16.8804 27.5474 -16.755C27.507 -16.7385 27.4508 -16.7154 27.435 -16.7089C27.4265 -16.7054 27.4127 -16.6997 27.4074 -16.6975C27.4037 -16.696 27.3974 -16.6934 27.3948 -16.6923C27.3893 -16.69 27.3848 -16.6882 27.3826 -16.6872C27.3778 -16.6853 27.3739 -16.6836 27.3719 -16.6828C27.3675 -16.681 27.3631 -16.6792 27.3597 -16.6777C27.356 -16.6762 27.3518 -16.6745 27.3475 -16.6727C27.3303 -16.6655 27.3045 -16.6548 27.2731 -16.6418C27.2098 -16.6156 27.1202 -16.5784 27.0227 -16.5379C26.925 -16.4974 26.8191 -16.4535 26.7231 -16.4137C26.6274 -16.374 26.5409 -16.3381 26.4824 -16.3138C26.4678 -16.3077 26.4546 -16.3023 26.4434 -16.2976C26.4324 -16.2931 26.4223 -16.2889 26.4142 -16.2855C26.4102 -16.2838 26.4054 -16.2818 26.4005 -16.2798C26.3981 -16.2788 26.3944 -16.2773 26.3901 -16.2755C26.3879 -16.2746 26.3847 -16.2733 26.3809 -16.2717C26.3792 -16.271 26.3757 -16.2695 26.3737 -16.2687C26.3712 -16.2676 26.3658 -16.2654 26.3627 -16.2641C26.3586 -16.2624 26.3489 -16.2584 26.3433 -16.256C26.335 -16.2526 26.3133 -16.2435 26.2998 -16.2378C26.2739 -16.227 26.1774 -16.1862 26.1067 -16.1562C25.1565 -15.7347 7.88122 30.3533 52.8133 48.5442C52.9274 48.4983 53.0753 48.4382 53.1092 48.4243C53.1254 48.4176 53.1512 48.4071 53.1608 48.4031C53.1671 48.4005 53.1778 48.3961 53.1823 48.3942C53.1857 48.3928 53.1916 48.3904 53.1942 48.3893C53.2 48.3869 53.2046 48.385 53.2074 48.3839C53.2104 48.3826 53.213 48.3815 53.2149 48.3808C53.2186 48.3792 53.222 48.3778 53.2244 48.3768C53.2292 48.3748 53.2342 48.3728 53.2387 48.3709C53.2434 48.3689 53.2487 48.3667 53.2544 48.3644C53.2659 48.3596 53.2804 48.3536 53.2979 48.3464C53.3329 48.3318 53.3817 48.3116 53.4462 48.2848L26.6287 -16.3744C26.5646 -16.3479 26.5171 -16.3282 26.4837 -16.3143C26.467 -16.3074 26.4542 -16.3021 26.4448 -16.2982C26.4401 -16.2962 26.4366 -16.2948 26.434 -16.2937C26.4312 -16.2925 26.4303 -16.2922 26.4308 -16.2924C26.431 -16.2925 26.4326 -16.2931 26.4349 -16.2941C26.4361 -16.2945 26.438 -16.2954 26.4405 -16.2964C26.4427 -16.2973 26.4469 -16.299 26.4522 -16.3012C26.4547 -16.3022 26.4604 -16.3046 26.4637 -16.306C26.468 -16.3078 26.4786 -16.3121 26.4848 -16.3147C26.4943 -16.3186 26.5199 -16.3291 26.5361 -16.3358C26.5699 -16.3496 26.7178 -16.4097 26.8319 -16.4556C71.764 1.73527 54.4887 47.8233 53.5385 48.2448C53.4679 48.2748 53.3714 48.3155 53.3455 48.3263C53.3321 48.332 53.3105 48.341 53.3023 48.3444C53.2968 48.3467 53.2873 48.3507 53.2833 48.3523C53.2804 48.3535 53.2751 48.3558 53.2728 48.3567C53.271 48.3574 53.2677 48.3588 53.2662 48.3594C53.2629 48.3608 53.2602 48.3619 53.2587 48.3626C53.2556 48.3639 53.2535 48.3647 53.2529 48.365C53.2518 48.3654 53.2519 48.3654 53.2541 48.3645C53.2582 48.3628 53.2651 48.3599 53.2752 48.3557C53.285 48.3516 53.2971 48.3467 53.3111 48.3408C53.3674 48.3175 53.4522 48.2823 53.5477 48.2427C53.643 48.2031 53.7483 48.1594 53.8454 48.1191C53.9426 48.0788 54.0312 48.0421 54.0931 48.0164C54.1243 48.0035 54.1478 47.9937 54.1622 47.9878C54.1657 47.9863 54.1683 47.9852 54.1701 47.9845C54.1723 47.9836 54.1723 47.9836 54.171 47.9841C54.1706 47.9842 54.1679 47.9854 54.1641 47.9869C54.1623 47.9877 54.1583 47.9894 54.1531 47.9915C54.1505 47.9926 54.1444 47.9951 54.1409 47.9966C54.1357 47.9987 54.122 48.0044 54.1135 48.0078C54.0978 48.0143 54.0416 48.0374 54.0013 48.0539C53.6899 48.1793 8.35041 28.8286 27.0232 -16.536C27.1224 -16.5783 27.2478 -16.6311 27.2738 -16.642C27.2857 -16.6469 27.3045 -16.6548 27.3113 -16.6576C27.3157 -16.6595 27.3232 -16.6626 27.3263 -16.6639C27.3286 -16.6648 27.3326 -16.6665 27.3343 -16.6672C27.3379 -16.6687 27.3408 -16.6699 27.3422 -16.6705C27.3452 -16.6717 27.3471 -16.6725 27.3474 -16.6726C27.3479 -16.6728 27.3479 -16.6729 27.3474 -16.6726C27.3462 -16.6722 27.3441 -16.6713 27.3406 -16.6698C27.3336 -16.6669 27.3233 -16.6626 27.3091 -16.6567C27.2808 -16.645 27.2389 -16.6276 27.1808 -16.6035C27.0647 -16.5553 26.8855 -16.481 26.6248 -16.3728L53.4501 48.2832ZM48.4026 7.59374C51.8918 7.59374 55.9834 8.77069 59.6846 11.8842C63.4521 15.0535 67.4865 21.0297 67.4865 29.2044H-2.51348C-2.51348 61.3436 26.2111 77.5937 48.4026 77.5937V7.59374ZM67.4865 29.2044C67.4865 38.0097 62.8041 44.3828 58.3994 47.5104L17.8724 -9.56467C6.27229 -1.32784 -2.51348 12.4495 -2.51348 29.2044H67.4865ZM19.2428 48.4356C25.6181 52.5237 32.6773 54.6279 39.5382 55.0602L43.9403 -14.8013C48.2207 -14.5316 52.7842 -13.2119 57.029 -10.4898L19.2428 48.4356ZM39.5536 55.0611C41.5064 55.1833 43.3786 55.1682 45.1488 55.0535L40.6241 -14.8001C41.6311 -14.8653 42.7358 -14.8766 43.9248 -14.8022L39.5536 55.0611ZM15.4741 -1.63486C12.1311 2.57618 6.61194 11.0363 5.96787 23.2277L75.8704 26.9206C75.4626 34.6399 71.9323 39.8305 70.2987 41.8883L15.4741 -1.63486ZM5.96839 23.2179C5.06302 40.2653 15.9785 53.7055 29.3153 58.6109L53.4793 -7.08611C66.2126 -2.40265 76.7433 10.485 75.8699 26.9303L5.96839 23.2179ZM29.3084 58.6084C33.4388 60.1286 37.6411 60.8116 41.6762 60.8116V-9.18843C45.5235 -9.18843 49.5363 -8.5373 53.4861 -7.0836L29.3084 58.6084ZM41.6762 60.8116C46.9419 60.8116 52.3185 59.6483 57.3439 57.2026L26.7118 -5.73928C31.5205 -8.07954 36.6561 -9.18843 41.6762 -9.18843V60.8116ZM57.6252 57.0641C58.3527 56.702 58.9296 56.3833 59.2793 56.1858C59.5854 56.0129 59.8694 55.8453 59.7913 55.891L24.4035 -4.50519C24.303 -4.44627 24.5643 -4.6005 24.8473 -4.7604C25.1739 -4.94491 25.7273 -5.25075 26.4306 -5.60083L57.6252 57.0641ZM60.8167 55.2664C63.2746 53.7106 65.7144 51.7464 67.9601 49.3157L16.5456 1.81254C18.699 -0.518162 21.0339 -2.39669 23.3782 -3.88055L60.8167 55.2664ZM68.0324 49.2373C66.5174 50.887 64.1544 53.0165 60.8379 54.8759C57.5982 56.6922 54.6834 57.4874 54.9573 57.405L34.7887 -9.62653C34.3615 -9.49799 30.6987 -8.47747 26.6053 -6.1825C22.435 -3.84443 19.1125 -0.982959 16.4734 1.89096L68.0324 49.2373ZM54.9634 57.4032C55.1453 57.3484 55.5577 57.2239 56.054 57.062L34.3439 -9.48624C34.4915 -9.53438 34.6095 -9.57141 34.6844 -9.59461C34.7551 -9.61647 34.7984 -9.62946 34.7826 -9.6247L54.9634 57.4032ZM56.8169 56.8034C58.213 56.3121 60.1543 55.5213 62.2746 54.4319C64.0498 53.5197 68.5432 51.1115 72.8852 46.7733L23.409 -2.7455C25.2442 -4.5791 26.8959 -5.76273 27.8542 -6.40004C28.8782 -7.08102 29.7309 -7.54627 30.2832 -7.83004C30.8608 -8.12684 31.3622 -8.35393 31.7639 -8.52563C31.974 -8.61541 32.1832 -8.70129 32.3932 -8.78452C32.4983 -8.82615 32.6099 -8.86967 32.7289 -8.91514C32.7874 -8.9375 32.8564 -8.96368 32.9348 -8.99302C32.9727 -9.00719 33.0257 -9.02697 33.0895 -9.05052C33.1207 -9.06203 33.1683 -9.07954 33.2266 -9.10076C33.2579 -9.11215 33.3994 -9.1637 33.581 -9.22761L56.8169 56.8034ZM24.867 48.1489C28.8967 51.7384 32.8489 53.7131 34.9389 54.6579C37.2206 55.6895 39.1727 56.3105 39.4691 56.4077L61.2724 -10.1101C61.1097 -10.1635 62.3103 -9.78885 63.7753 -9.12657C65.0484 -8.55099 68.1184 -7.06846 71.4272 -4.12113L24.867 48.1489ZM39.423 56.3925L39.4913 56.415L61.387 -10.0724L61.3186 -10.095L39.423 56.3925ZM39.4706 56.4082C42.5973 57.44 45.2449 57.8442 46.7971 58.0289C47.5989 58.1244 48.2631 58.1779 48.6816 58.2081C49.0728 58.2363 49.4257 58.2558 49.4675 58.2582L53.4708 -11.6272C53.0645 -11.6505 53.9857 -11.6095 55.069 -11.4806C56.2768 -11.3369 58.5939 -10.9942 61.4077 -10.0656L39.4706 56.4082ZM49.4798 58.2589C50.3864 58.3105 46.7282 58.2497 42.556 56.9794C37.419 55.4154 32.3513 52.4479 28.2686 48.0012L79.8312 0.658926C68.7471 -11.4133 54.6742 -11.5587 53.4585 -11.6279L49.4798 58.2589ZM28.2314 47.9607C38.4673 59.1443 53.9452 62.1503 66.9348 57.3962L42.8762 -8.33949C55.2624 -12.8727 70.0523 -10.0254 79.8684 0.699478L28.2314 47.9607ZM67.0138 57.3672C80.314 52.4631 91.2412 39.0428 90.3343 21.9822L20.433 25.698C19.558 9.23883 30.1003 -3.62886 42.7972 -8.31045L67.0138 57.3672ZM90.3352 21.9987C89.7203 10.3281 84.6203 1.85689 80.265 -3.25059L27.0011 42.1691C24.2445 38.9365 20.832 33.2722 20.4321 25.6815L90.3352 21.9987ZM51.3592 54.3853C56.6319 54.7286 63.0331 54.2028 69.6805 51.6574L44.6489 -13.7139C49.067 -15.4057 53.0305 -15.654 55.9068 -15.4668L51.3592 54.3853ZM69.674 51.66C71.2636 51.0516 73.0247 50.2703 74.8713 49.2591L41.2487 -12.1373C42.5215 -12.8344 43.6816 -13.3438 44.6555 -13.7164L69.674 51.66ZM39.1123 47.9885C36.9691 46.6086 34.6848 44.5254 32.8057 41.5105L92.212 4.48492C88.1835 -1.97858 82.8356 -7.11433 77.0076 -10.8668L39.1123 47.9885ZM32.8026 41.5056C30.6608 38.0678 29.3186 33.8358 29.3186 29.2042H99.3186C99.3186 20.2511 96.7242 11.7272 92.2151 4.48985L32.8026 41.5056ZM29.3186 29.2042C29.3186 21.03 33.3527 15.0538 37.1204 11.8843C40.8217 8.7707 44.9134 7.59374 48.4026 7.59374V77.5937C70.5946 77.5937 99.3186 61.3432 99.3186 29.2042H29.3186Z" fill="white" mask="url(#path-2-inside-1)"/>
<path d="M48.4023 41.1815C40.629 41.1815 34.3052 35.8086 34.3052 29.2045C34.3052 28.8161 34.6445 28.5013 35.0631 28.5013C35.4817 28.5013 35.821 28.8161 35.821 29.2045C35.821 35.0333 41.465 39.7752 48.4023 39.7752C48.8209 39.7752 49.1602 40.09 49.1602 40.4784C49.1602 40.8667 48.8209 41.1815 48.4023 41.1815Z" fill="white"/>
<path d="M51.5351 40.8724C51.1164 40.8724 50.7769 40.5577 50.7769 40.1693C50.7769 39.7809 51.1158 39.4662 51.5342 39.4662H51.5351C51.9537 39.4662 52.293 39.7809 52.293 40.1693C52.293 40.5577 51.9537 40.8724 51.5351 40.8724Z" fill="white"/>
</g>
<defs>
<filter id="filter0_d" x="1.04688" y="7.875" width="140.945" height="44.5938" filterUnits="userSpaceOnUse" color-interpolation-filters="sRGB">
<feFlood flood-opacity="0" result="BackgroundImageFix"/>
<feColorMatrix in="SourceAlpha" type="matrix" values="0 0 0 0 0 0 0 0 0 0 0 0 0 0 0 0 0 0 127 0"/>
<feOffset dx="3" dy="3"/>
<feGaussianBlur stdDeviation="2.5"/>
<feColorMatrix type="matrix" values="0 0 0 0 0 0 0 0 0 0 0 0 0 0 0 0 0 0 0.25 0"/>
<feBlend mode="normal" in2="BackgroundImageFix" result="effect1_dropShadow"/>
<feBlend mode="normal" in="SourceGraphic" in2="effect1_dropShadow" result="shape"/>
</filter>
<clipPath id="clip0">
<rect width="37" height="36" fill="white" transform="translate(29 8)"/>
</clipPath>
</defs>
</svg>
