<svg width="37" height="36" viewBox="0 0 37 36" fill="none" xmlns="http://www.w3.org/2000/svg">
<g clip-path="url(#clip0)">
<mask id="path-1-inside-1" fill="white">
<path d="M34.8207 14.294C33.7173 12.5233 32.181 10.9443 30.3407 9.68279C31.8867 8.36718 32.4726 6.80135 32.5008 6.72527C32.6251 6.38497 32.4522 6.01363 32.1005 5.86257C31.7497 5.71205 31.3313 5.83236 31.1321 6.14025C31.0584 6.25286 30.5302 6.99883 29.3531 6.99883C28.9445 6.99883 28.4572 6.90874 27.8843 6.67116C24.9776 5.46596 21.9007 5.92794 21.3421 6.02626H20.9033C20.2484 4.56673 18.2035 0.4323 15.9055 0.0392638C15.0781 -0.103009 14.3684 0.145282 13.9602 0.720416C13.4628 1.42162 13.4181 2.76937 14.2959 3.9894C14.621 4.44066 15.0271 5.08144 15.4911 5.873C14.192 5.81203 12.2714 5.90267 10.419 6.67116C8.19532 7.59237 7.27014 6.29296 7.17214 6.14162C6.97674 5.83647 6.56581 5.71425 6.21499 5.85762C5.86475 6.00045 5.68445 6.36382 5.79518 6.70412C5.82241 6.78789 6.40683 8.54296 7.96202 10.0407C6.24696 11.3099 4.82055 12.868 3.80567 14.5879C2.58828 16.6531 1.9707 18.8792 1.9707 21.2044C1.9707 25.1688 3.79264 28.8927 7.10168 31.689C10.3912 34.4693 14.7595 36 19.4026 36C24.0457 36 28.414 34.4693 31.7035 31.689C35.0125 28.8927 36.8345 25.1688 36.8345 21.2044C36.8345 18.7968 36.1378 16.4075 34.8207 14.294ZM11.0375 7.95519C13.1241 7.08947 15.3886 7.24135 16.3005 7.35396L16.3822 7.52755V7.52892L17.2221 9.31502C17.3888 9.66878 17.8308 9.83193 18.2133 9.68059C18.5961 9.53008 18.7764 9.12166 18.6174 8.76516C18.409 8.29769 18.0443 7.527 17.7754 6.96312C17.6754 6.75356 17.5957 6.58684 17.5525 6.4984C17.5481 6.48851 17.5427 6.47863 17.5374 6.46956C17.5276 6.44484 17.5161 6.42095 17.5034 6.3976C16.7233 4.99135 16.0678 3.91826 15.5562 3.20827C15.0733 2.5381 15.0393 1.75835 15.2264 1.49385C15.253 1.45677 15.3158 1.36806 15.6305 1.42162C16.6658 1.59932 18.4848 4.09349 19.6844 6.98207C19.7975 7.25344 20.0779 7.43251 20.3917 7.43251H21.417C21.4702 7.43251 21.5238 7.42702 21.5756 7.41713C21.5907 7.41439 22.3638 7.26744 23.471 7.26744C24.5487 7.26744 25.944 7.4067 27.2659 7.95519C28.1677 8.329 28.943 8.43612 29.5887 8.40014C29.3176 8.65969 29.0046 8.91347 28.6452 9.14116C27.0734 10.1376 25.1035 10.3346 22.7898 9.72701C22.507 9.6523 22.203 9.7369 22.0106 9.94289C21.8181 10.1489 21.7719 10.44 21.8907 10.6894C22.0067 10.93 22.2151 11.1212 22.5319 11.4118C23.1134 11.9438 24.0714 12.8227 24.5646 14.2819C23.8029 13.9823 23.0808 13.9416 22.5624 13.912C22.3152 13.898 22.0597 13.8831 21.9499 13.8466L21.8756 13.8227C20.1673 13.263 19.9127 12.7554 19.9127 12.5022C19.9127 12.1141 19.5663 11.799 19.148 11.799C18.7296 11.799 18.3901 12.1141 18.3901 12.5022C18.3901 13.1061 16.4716 14.2039 15.6879 14.4632C15.5979 14.4937 15.5032 14.5217 15.4046 14.5519C14.9659 14.684 14.4383 14.8422 13.8213 15.2086C14.3495 13.7389 15.2803 12.7252 15.8555 12.1001C16.1306 11.7999 16.3126 11.6024 16.4118 11.3969C16.5308 11.1473 16.4846 10.8561 16.2922 10.6501C16.1459 10.4941 15.936 10.4076 15.719 10.4076C15.6501 10.4076 15.5805 10.4161 15.5124 10.4343C13.1809 11.0467 11.1991 10.7501 9.62113 9.55205H9.62024C9.14418 9.18978 8.75161 8.78273 8.43098 8.38118C9.14211 8.47045 10.0084 8.38201 11.0375 7.95519C13.1241 7.08947 10.0084 8.38201 11.0375 7.95519ZM19.4026 34.5937C10.6268 34.5937 3.48652 28.5875 3.48652 21.2044C3.48652 17.2296 5.5382 13.5275 9.13589 10.9729C10.2011 11.6559 11.449 12.0481 12.7392 12.1294C13.1211 12.1533 13.5048 12.1514 13.8864 12.1267C13.0317 13.2034 12.0373 14.8381 11.9191 17.0741C11.9031 17.3751 12.0956 17.6514 12.3973 17.7624C12.4876 17.7956 12.5823 17.8116 12.6762 17.8116C12.799 17.8116 12.9195 17.7844 13.0279 17.7316C13.0521 17.7196 13.0749 17.7061 13.0974 17.6929C13.1543 17.6569 13.2067 17.6141 13.2529 17.5641C14.377 16.34 15.1719 16.1002 15.873 15.8892C15.9852 15.8555 16.0912 15.823 16.1989 15.7879C16.2247 15.7788 18.0703 15.0897 19.1471 14.0139C19.868 14.656 20.9116 14.9983 21.3708 15.1488L21.4392 15.1713C21.7521 15.2746 22.1 15.2943 22.4691 15.3155C23.2845 15.3619 24.2094 15.4146 25.0499 16.3301C25.2598 16.5594 25.6038 16.6388 25.9055 16.5284C26.2072 16.4171 26.3996 16.1408 26.3836 15.8401C26.2762 13.8002 25.4324 12.3967 24.633 11.4593C25.8312 11.5373 27.05 11.3986 28.1647 10.9718C28.4726 10.8539 28.7731 10.718 29.06 10.5609C30.9024 11.7471 32.4342 13.2734 33.5088 14.9977C34.6925 16.8975 35.3186 19.0434 35.3186 21.2042C35.3186 28.5875 28.1783 34.5937 19.4026 34.5937Z"/>
</mask>
<path d="M34.8207 14.294C33.7173 12.5233 32.181 10.9443 30.3407 9.68279C31.8867 8.36718 32.4726 6.80135 32.5008 6.72527C32.6251 6.38497 32.4522 6.01363 32.1005 5.86257C31.7497 5.71205 31.3313 5.83236 31.1321 6.14025C31.0584 6.25286 30.5302 6.99883 29.3531 6.99883C28.9445 6.99883 28.4572 6.90874 27.8843 6.67116C24.9776 5.46596 21.9007 5.92794 21.3421 6.02626H20.9033C20.2484 4.56673 18.2035 0.4323 15.9055 0.0392638C15.0781 -0.103009 14.3684 0.145282 13.9602 0.720416C13.4628 1.42162 13.4181 2.76937 14.2959 3.9894C14.621 4.44066 15.0271 5.08144 15.4911 5.873C14.192 5.81203 12.2714 5.90267 10.419 6.67116C8.19532 7.59237 7.27014 6.29296 7.17214 6.14162C6.97674 5.83647 6.56581 5.71425 6.21499 5.85762C5.86475 6.00045 5.68445 6.36382 5.79518 6.70412C5.82241 6.78789 6.40683 8.54296 7.96202 10.0407C6.24696 11.3099 4.82055 12.868 3.80567 14.5879C2.58828 16.6531 1.9707 18.8792 1.9707 21.2044C1.9707 25.1688 3.79264 28.8927 7.10168 31.689C10.3912 34.4693 14.7595 36 19.4026 36C24.0457 36 28.414 34.4693 31.7035 31.689C35.0125 28.8927 36.8345 25.1688 36.8345 21.2044C36.8345 18.7968 36.1378 16.4075 34.8207 14.294ZM11.0375 7.95519C13.1241 7.08947 15.3886 7.24135 16.3005 7.35396L16.3822 7.52755V7.52892L17.2221 9.31502C17.3888 9.66878 17.8308 9.83193 18.2133 9.68059C18.5961 9.53008 18.7764 9.12166 18.6174 8.76516C18.409 8.29769 18.0443 7.527 17.7754 6.96312C17.6754 6.75356 17.5957 6.58684 17.5525 6.4984C17.5481 6.48851 17.5427 6.47863 17.5374 6.46956C17.5276 6.44484 17.5161 6.42095 17.5034 6.3976C16.7233 4.99135 16.0678 3.91826 15.5562 3.20827C15.0733 2.5381 15.0393 1.75835 15.2264 1.49385C15.253 1.45677 15.3158 1.36806 15.6305 1.42162C16.6658 1.59932 18.4848 4.09349 19.6844 6.98207C19.7975 7.25344 20.0779 7.43251 20.3917 7.43251H21.417C21.4702 7.43251 21.5238 7.42702 21.5756 7.41713C21.5907 7.41439 22.3638 7.26744 23.471 7.26744C24.5487 7.26744 25.944 7.4067 27.2659 7.95519C28.1677 8.329 28.943 8.43612 29.5887 8.40014C29.3176 8.65969 29.0046 8.91347 28.6452 9.14116C27.0734 10.1376 25.1035 10.3346 22.7898 9.72701C22.507 9.6523 22.203 9.7369 22.0106 9.94289C21.8181 10.1489 21.7719 10.44 21.8907 10.6894C22.0067 10.93 22.2151 11.1212 22.5319 11.4118C23.1134 11.9438 24.0714 12.8227 24.5646 14.2819C23.8029 13.9823 23.0808 13.9416 22.5624 13.912C22.3152 13.898 22.0597 13.8831 21.9499 13.8466L21.8756 13.8227C20.1673 13.263 19.9127 12.7554 19.9127 12.5022C19.9127 12.1141 19.5663 11.799 19.148 11.799C18.7296 11.799 18.3901 12.1141 18.3901 12.5022C18.3901 13.1061 16.4716 14.2039 15.6879 14.4632C15.5979 14.4937 15.5032 14.5217 15.4046 14.5519C14.9659 14.684 14.4383 14.8422 13.8213 15.2086C14.3495 13.7389 15.2803 12.7252 15.8555 12.1001C16.1306 11.7999 16.3126 11.6024 16.4118 11.3969C16.5308 11.1473 16.4846 10.8561 16.2922 10.6501C16.1459 10.4941 15.936 10.4076 15.719 10.4076C15.6501 10.4076 15.5805 10.4161 15.5124 10.4343C13.1809 11.0467 11.1991 10.7501 9.62113 9.55205H9.62024C9.14418 9.18978 8.75161 8.78273 8.43098 8.38118C9.14211 8.47045 10.0084 8.38201 11.0375 7.95519C13.1241 7.08947 10.0084 8.38201 11.0375 7.95519ZM19.4026 34.5937C10.6268 34.5937 3.48652 28.5875 3.48652 21.2044C3.48652 17.2296 5.5382 13.5275 9.13589 10.9729C10.2011 11.6559 11.449 12.0481 12.7392 12.1294C13.1211 12.1533 13.5048 12.1514 13.8864 12.1267C13.0317 13.2034 12.0373 14.8381 11.9191 17.0741C11.9031 17.3751 12.0956 17.6514 12.3973 17.7624C12.4876 17.7956 12.5823 17.8116 12.6762 17.8116C12.799 17.8116 12.9195 17.7844 13.0279 17.7316C13.0521 17.7196 13.0749 17.7061 13.0974 17.6929C13.1543 17.6569 13.2067 17.6141 13.2529 17.5641C14.377 16.34 15.1719 16.1002 15.873 15.8892C15.9852 15.8555 16.0912 15.823 16.1989 15.7879C16.2247 15.7788 18.0703 15.0897 19.1471 14.0139C19.868 14.656 20.9116 14.9983 21.3708 15.1488L21.4392 15.1713C21.7521 15.2746 22.1 15.2943 22.4691 15.3155C23.2845 15.3619 24.2094 15.4146 25.0499 16.3301C25.2598 16.5594 25.6038 16.6388 25.9055 16.5284C26.2072 16.4171 26.3996 16.1408 26.3836 15.8401C26.2762 13.8002 25.4324 12.3967 24.633 11.4593C25.8312 11.5373 27.05 11.3986 28.1647 10.9718C28.4726 10.8539 28.7731 10.718 29.06 10.5609C30.9024 11.7471 32.4342 13.2734 33.5088 14.9977C34.6925 16.8975 35.3186 19.0434 35.3186 21.2042C35.3186 28.5875 28.1783 34.5937 19.4026 34.5937Z" fill="white"/>
<path d="M30.3407 9.68279L7.65801 -16.9723L-27.1883 12.6809L10.5516 38.5513L30.3407 9.68279ZM32.5008 6.72527L65.3293 18.8614L65.3523 18.7994L65.3749 18.7373L32.5008 6.72527ZM32.1005 5.86257L45.9129 -26.2967L45.8999 -26.3023L32.1005 5.86257ZM31.1321 6.14025L60.4154 25.3102L60.466 25.233L60.5161 25.1556L31.1321 6.14025ZM27.8843 6.67116L41.2921 -25.6589L41.2897 -25.6599L27.8843 6.67116ZM21.3421 6.02626V41.0263H24.3987L27.409 40.4964L21.3421 6.02626ZM20.9033 6.02626L-11.0296 20.3543L-1.75423 41.0263H20.9033V6.02626ZM15.9055 0.0392638L9.97485 34.5331L9.98994 34.5357L10.005 34.5383L15.9055 0.0392638ZM13.9602 0.720416L-14.5802 -19.5392L-14.5874 -19.5289L13.9602 0.720416ZM14.2959 3.9894L-14.1146 24.4307L-14.1088 24.4387L-14.103 24.4468L14.2959 3.9894ZM15.4911 5.873L13.8501 40.8345L78.3231 43.8606L45.6871 -11.8244L15.4911 5.873ZM10.419 6.67116L23.8144 39.0063L23.8225 39.003L23.8307 38.9996L10.419 6.67116ZM7.17214 6.14162L-22.3027 25.0157L-22.2548 25.0906L-22.2065 25.1652L7.17214 6.14162ZM6.21499 5.85762L19.431 38.2665L19.4432 38.2616L19.4553 38.2566L6.21499 5.85762ZM5.79518 6.70412L39.08 -4.11811L39.0777 -4.12518L5.79518 6.70412ZM7.96202 10.0407L28.7821 38.1747L62.0602 13.548L32.2405 -15.1696L7.96202 10.0407ZM3.80567 14.5879L-26.3377 -3.19911L-26.3416 -3.19251L-26.3455 -3.1859L3.80567 14.5879ZM7.10168 31.689L29.6952 4.9582L29.6924 4.95586L7.10168 31.689ZM31.7035 31.689L9.11274 4.95586L9.10998 4.9582L31.7035 31.689ZM11.0375 7.95519L24.4462 40.2848L24.4501 40.2832L11.0375 7.95519ZM16.3005 7.35396L47.9674 -7.55272L39.7466 -25.0164L20.5902 -27.3822L16.3005 7.35396ZM16.3822 7.52755H51.3822V-0.298438L48.0491 -7.37914L16.3822 7.52755ZM16.3822 7.52892H-18.6178V15.3476L-15.2906 22.4231L16.3822 7.52892ZM17.2221 9.31502L-14.4507 24.2092L-14.4451 24.2211L-14.4395 24.233L17.2221 9.31502ZM18.2133 9.68059L5.40619 -22.8921L5.37155 -22.8784L5.33693 -22.8647L18.2133 9.68059ZM18.6174 8.76516L-13.3492 23.0177L-13.3481 23.0201L18.6174 8.76516ZM17.7754 6.96312L49.3688 -8.09868L49.3642 -8.1085L49.3595 -8.11833L17.7754 6.96312ZM17.5525 6.4984L-14.3751 20.8381L-14.1423 21.3565L-13.8927 21.867L17.5525 6.4984ZM17.5374 6.46956L-15.0125 19.3344L-14.0126 21.8641L-12.6339 24.209L17.5374 6.46956ZM17.5034 6.3976L48.2317 -10.3585L48.171 -10.47L48.1094 -10.581L17.5034 6.3976ZM15.5562 3.20827L-12.8405 23.6687L-12.84 23.6693L15.5562 3.20827ZM15.2264 1.49385L-13.1961 -18.9307L-13.2718 -18.8253L-13.3468 -18.7193L15.2264 1.49385ZM15.6305 1.42162L21.5514 -33.0739L21.527 -33.0781L21.5025 -33.0823L15.6305 1.42162ZM19.6844 6.98207L-12.6389 20.4059L-12.6306 20.4261L-12.6221 20.4463L19.6844 6.98207ZM21.5756 7.41713L15.3118 -27.0178L15.163 -26.9907L15.0145 -26.9624L21.5756 7.41713ZM27.2659 7.95519L13.8522 40.2828L13.8635 40.2875L27.2659 7.95519ZM29.5887 8.40014L53.789 33.6854L122.227 -31.8162L27.6415 -26.5457L29.5887 8.40014ZM28.6452 9.14116L9.9147 -20.4252L9.90489 -20.419L28.6452 9.14116ZM22.7898 9.72701L13.8486 43.5657L13.8746 43.5725L13.9006 43.5794L22.7898 9.72701ZM22.0106 9.94289L-3.56543 -13.95L-3.56543 -13.95L22.0106 9.94289ZM21.8907 10.6894L-9.71133 25.7332L-9.6727 25.8143L-9.63365 25.8953L21.8907 10.6894ZM22.5319 11.4118L-1.12752 37.2038L-1.11105 37.2189L-1.09456 37.234L22.5319 11.4118ZM24.5646 14.2819L11.7523 46.8526L81.8373 74.4219L57.7218 3.07475L24.5646 14.2819ZM22.5624 13.912L24.5619 -21.0309L24.5522 -21.0314L24.5424 -21.032L22.5624 13.912ZM21.9499 13.8466L32.9953 -19.3648L32.83 -19.4198L32.6641 -19.4731L21.9499 13.8466ZM21.8756 13.8227L10.9771 47.0826L11.0691 47.1128L11.1613 47.1424L21.8756 13.8227ZM15.6879 14.4632L4.6942 -18.7653L4.57638 -18.7264L4.45884 -18.6866L15.6879 14.4632ZM15.4046 14.5519L25.4957 48.0657L25.5778 48.0409L25.6598 48.0158L15.4046 14.5519ZM13.8213 15.2086L-19.1164 3.37178L-52.0583 95.0373L31.6923 45.3023L13.8213 15.2086ZM15.8555 12.1001L41.6105 35.7999L41.6364 35.7717L41.6622 35.7435L15.8555 12.1001ZM16.4118 11.3969L47.9312 26.6131L47.9686 26.5355L48.0057 26.4578L16.4118 11.3969ZM16.2922 10.6501L41.8682 -13.2427L41.8472 -13.2652L41.8262 -13.2875L16.2922 10.6501ZM15.5124 10.4343L24.4054 44.2856L24.4609 44.271L24.5163 44.2563L15.5124 10.4343ZM9.62113 9.55205L30.7855 -18.3239L21.4023 -25.4479H9.62113V9.55205ZM9.62024 9.55205L-11.575 37.4045L-2.18254 44.5521H9.62024V9.55205ZM8.43098 8.38118L12.7901 -26.3463L-72.6506 -37.0711L-18.9197 30.2202L8.43098 8.38118ZM9.13589 10.9729L28.029 -18.4898L8.1384 -31.2448L-11.1276 -17.5647L9.13589 10.9729ZM12.7392 12.1294L10.5382 47.0602L10.5459 47.0607L10.5536 47.0611L12.7392 12.1294ZM13.8864 12.1267L41.2987 33.8883L90.3497 -27.8995L11.6241 -22.8001L13.8864 12.1267ZM11.9191 17.0741L46.8699 18.9303L46.8704 18.9206L11.9191 17.0741ZM12.3973 17.7624L24.4861 -15.0836L24.4793 -15.0861L12.3973 17.7624ZM13.0279 17.7316L28.3439 49.2026L28.4848 49.134L28.6252 49.0641L13.0279 17.7316ZM13.0974 17.6929L30.7913 47.891L31.3094 47.5875L31.8167 47.2664L13.0974 17.6929ZM13.2529 17.5641L38.9601 41.3157L38.9963 41.2765L39.0324 41.2373L13.2529 17.5641ZM15.873 15.8892L25.9573 49.405L25.9634 49.4032L15.873 15.8892ZM16.1989 15.7879L27.054 49.062L27.4369 48.9371L27.8169 48.8034L16.1989 15.7879ZM19.1471 14.0139L42.4272 -12.1211L17.7691 -34.0856L-5.59101 -10.7455L19.1471 14.0139ZM21.3708 15.1488L32.3186 -18.095L32.2955 -18.1026L32.2724 -18.1101L21.3708 15.1488ZM21.4392 15.1713L32.4077 -18.0656L32.3974 -18.069L32.387 -18.0724L21.4392 15.1713ZM22.4691 15.3155L20.4675 50.2582L20.4798 50.2589L22.4691 15.3155ZM25.0499 16.3301L50.8684 -7.30052L50.8498 -7.32081L50.8312 -7.34107L25.0499 16.3301ZM25.9055 16.5284L37.9348 49.3962L37.9743 49.3818L38.0138 49.3672L25.9055 16.5284ZM26.3836 15.8401L-8.56791 17.6815L-8.56747 17.6897L-8.56703 17.698L26.3836 15.8401ZM24.633 11.4593L26.9068 -23.4668L-55.7347 -28.847L-1.99894 34.1691L24.633 11.4593ZM28.1647 10.9718L15.6555 -21.7164L15.6489 -21.7139L28.1647 10.9718ZM29.06 10.5609L48.0076 -18.8668L30.506 -30.1356L12.2487 -20.1373L29.06 10.5609ZM33.5088 14.9977L63.2151 -3.51015L63.212 -3.51508L33.5088 14.9977ZM64.5254 -4.21618C60.6796 -10.3878 55.6516 -15.4006 50.1298 -19.1857L10.5516 38.5513C8.71042 37.2892 6.75492 35.4345 5.11593 32.8042L64.5254 -4.21618ZM53.0235 36.3379C61.2113 29.3703 64.4275 21.3009 65.3293 18.8614L-0.327806 -5.41082C0.19935 -6.8368 0.949904 -8.57596 2.07127 -10.4232C3.16733 -12.2287 4.92563 -14.6471 7.65801 -16.9723L53.0235 36.3379ZM65.3749 18.7373C72.4708 -0.682566 61.6927 -19.5193 45.9129 -26.2967L18.2881 38.0218C3.21175 31.5465 -7.22063 13.4525 -0.3734 -5.28677L65.3749 18.7373ZM45.8999 -26.3023C30.7858 -32.7865 11.7436 -28.3209 1.74813 -12.8751L60.5161 25.1556C50.919 39.9856 32.7136 44.2107 18.3011 38.0274L45.8999 -26.3023ZM1.84875 -13.0297C4.65419 -17.3152 13.406 -28.0012 29.3531 -28.0012V41.9988C47.6544 41.9988 57.4626 29.8209 60.4154 25.3102L1.84875 -13.0297ZM29.3531 -28.0012C34.1817 -28.0012 38.2444 -26.9228 41.2921 -25.6589L14.4765 39.0012C18.67 40.7403 23.7073 41.9988 29.3531 41.9988V-28.0012ZM41.2897 -25.6599C28.8035 -30.837 17.4033 -28.8185 15.2751 -28.4439L27.409 40.4964C26.2129 40.7069 24.7696 40.8859 23.0672 40.8536C21.502 40.8238 18.3273 40.5978 14.479 39.0022L41.2897 -25.6599ZM21.3421 -28.9737H20.9033V41.0263H21.3421V-28.9737ZM52.8362 -8.30173C52.1523 -9.82581 50.4427 -13.4879 47.7501 -17.3575C46.4069 -19.2879 44.1203 -22.2942 40.7867 -25.2506C37.7139 -27.9757 31.325 -32.8317 21.8061 -34.4598L10.005 34.5383C1.63513 33.1068 -3.6364 28.9149 -5.65901 27.1212C-7.94244 25.0961 -9.24608 23.2884 -9.70892 22.6232C-10.6408 21.2839 -11.0006 20.4188 -11.0296 20.3543L52.8362 -8.30173ZM21.8363 -34.4546C10.8475 -36.344 -4.70243 -33.4542 -14.5802 -19.5392L42.5005 20.98C33.4393 33.7448 19.3086 36.1379 9.97485 34.5331L21.8363 -34.4546ZM-14.5874 -19.5289C-25.6316 -3.95878 -21.65 13.9576 -14.1146 24.4307L42.7063 -16.4519C46.0265 -11.8374 48.1558 -6.18355 48.543 -0.041577C48.8986 5.59957 47.827 13.4706 42.5077 20.9698L-14.5874 -19.5289ZM-14.103 24.4468C-14.2915 24.185 -14.433 23.9778 -14.5235 23.8428C-14.6161 23.7046 -14.68 23.605 -14.7135 23.5521C-14.776 23.4535 -14.7742 23.4522 -14.705 23.5704L45.6871 -11.8244C44.984 -13.0241 43.9455 -14.7317 42.6948 -16.468L-14.103 24.4468ZM17.132 -29.0885C13.1481 -29.2755 5.47044 -29.1682 -2.99265 -25.6573L23.8307 38.9996C21.2988 40.05 19.1044 40.4874 17.5757 40.6817C16.033 40.8778 14.7627 40.8773 13.8501 40.8345L17.132 -29.0885ZM-2.97642 -25.664C3.5824 -28.3811 12.7782 -29.3115 22.0508 -25.2465C30.0648 -21.7333 34.4945 -16.0576 36.5508 -12.8819L-22.2065 25.1652C-20.0522 28.4921 -15.111 34.8933 -6.05394 38.8637C4.26172 43.3859 15.0319 42.6446 23.8144 39.0063L-2.97642 -25.664ZM36.647 -12.7325C26.7591 -28.1741 7.93868 -32.6566 -7.02537 -26.5413L19.4553 38.2566C5.19295 44.0851 -12.8056 39.847 -22.3027 25.0157L36.647 -12.7325ZM-7.00099 -26.5513C-22.7859 -20.1144 -33.7783 -1.80104 -27.4873 17.5334L39.0777 -4.12518C45.1472 14.5287 34.5154 32.1153 19.431 38.2665L-7.00099 -26.5513ZM-27.4896 17.5264C-26.7573 19.7787 -23.9381 27.911 -16.3164 35.2509L32.2405 -15.1696C34.7236 -12.7782 36.2238 -10.4139 37.0978 -8.79644C37.9959 -7.13435 38.6149 -5.54843 39.08 -4.11811L-27.4896 17.5264ZM-12.858 -18.0934C-18.0577 -14.2455 -22.7658 -9.25235 -26.3377 -3.19911L33.949 32.3749C32.4069 34.9883 30.5516 36.8652 28.7821 38.1747L-12.858 -18.0934ZM-26.3455 -3.1859C-30.6328 4.08706 -33.0293 12.425 -33.0293 21.2044H36.9707C36.9707 25.3333 35.8094 29.2191 33.9568 32.3617L-26.3455 -3.1859ZM-33.0293 21.2044C-33.0293 36.5035 -25.8442 49.6714 -15.4891 58.422L29.6924 4.95586C33.4295 8.1139 36.9707 13.8342 36.9707 21.2044H-33.0293ZM-15.4918 58.4197C-5.37167 66.9735 7.18563 71 19.4026 71V0.999991C22.3334 0.999991 26.154 1.96512 29.6952 4.9582L-15.4918 58.4197ZM19.4026 71C31.6195 71 44.1768 66.9735 54.297 58.4197L9.10998 4.9582C12.6511 1.96512 16.4718 0.999991 19.4026 0.999991V71ZM54.2942 58.422C64.6494 49.6714 71.8345 36.5035 71.8345 21.2044H1.83446C1.83446 13.8342 5.37563 8.1139 9.11274 4.95586L54.2942 58.422ZM71.8345 21.2044C71.8345 12.0147 69.1751 3.24456 64.5244 -4.21778L5.11692 32.8058C3.1006 29.5705 1.83446 25.5789 1.83446 21.2044H71.8345ZM24.4501 40.2832C20.8474 41.7779 17.8355 42.1276 16.195 42.2255C14.4566 42.3293 13.038 42.2169 12.0108 42.0901L20.5902 -27.3822C17.8037 -27.7263 8.18861 -28.7557 -2.37521 -24.3728L24.4501 40.2832ZM-15.3664 22.2606L-15.2847 22.4342L48.0491 -7.37914L47.9674 -7.55272L-15.3664 22.2606ZM-18.6178 7.52755V7.52892H51.3822V7.52755H-18.6178ZM-15.2906 22.4231L-14.4507 24.2092L48.8949 -5.57911L48.055 -7.36522L-15.2906 22.4231ZM-14.4395 24.233C-5.77016 42.6325 14.9485 48.6121 31.0897 42.2259L5.33693 -22.8647C20.7131 -28.9482 40.5477 -23.295 48.8837 -5.60292L-14.4395 24.233ZM31.0204 42.2532C48.2234 35.4893 59.6086 14.7493 50.583 -5.48979L-13.3481 23.0201C-22.0557 3.49398 -11.0311 -16.4291 5.40619 -22.8921L31.0204 42.2532ZM50.584 -5.48742C50.1632 -6.4314 49.6033 -7.60693 49.3688 -8.09868L-13.8179 22.0249C-13.6996 22.2732 -13.5758 22.5342 -13.4683 22.7632C-13.4151 22.8767 -13.3748 22.9635 -13.3469 23.0239C-13.3149 23.0933 -13.3196 23.084 -13.3492 23.0177L50.584 -5.48742ZM49.3595 -8.11833C49.3003 -8.24218 49.1302 -8.5993 48.9978 -8.87024L-13.8927 21.867C-13.9081 21.8356 -13.9195 21.8121 -13.9255 21.7997C-13.9319 21.7866 -13.9357 21.7786 -13.9364 21.7771C-13.9373 21.7753 -13.9329 21.7845 -13.9208 21.8098C-13.8951 21.8633 -13.8608 21.9351 -13.8086 22.0446L49.3595 -8.11833ZM49.4801 -7.84132C48.8014 -9.35242 48.1422 -10.5328 47.7088 -11.2699L-12.6339 24.209C-13.0567 23.49 -13.7053 22.3294 -14.3751 20.8381L49.4801 -7.84132ZM50.0873 -6.39525C49.45 -8.00769 48.7859 -9.34224 48.2317 -10.3585L-13.225 23.1537C-13.7537 22.1841 -14.3947 20.8974 -15.0125 19.3344L50.0873 -6.39525ZM48.1094 -10.581C47.1103 -12.382 45.671 -14.8676 43.9524 -17.2528L-12.84 23.6693C-13.0748 23.3435 -13.236 23.1017 -13.318 22.9764C-13.3624 22.9086 -13.3944 22.8583 -13.4137 22.8277C-13.4236 22.812 -13.4309 22.8003 -13.4356 22.7928C-13.4379 22.789 -13.4397 22.7862 -13.4408 22.7843C-13.442 22.7825 -13.4425 22.7815 -13.4425 22.7815C-13.4425 22.7815 -13.442 22.7824 -13.4409 22.7842C-13.4398 22.786 -13.4382 22.7886 -13.4361 22.7921C-13.4319 22.7992 -13.4257 22.8095 -13.4176 22.8232C-13.4012 22.8507 -13.3782 22.89 -13.3483 22.9415C-13.2878 23.046 -13.2061 23.1897 -13.1026 23.3762L48.1094 -10.581ZM43.9529 -17.2522C47.1698 -12.7874 49.0512 -7.80482 49.7735 -2.85346C50.1349 -0.376188 50.2989 2.72543 49.8436 6.25593C49.461 9.22246 48.2852 15.3662 43.7996 21.707L-13.3468 -18.7193C-17.9259 -12.2463 -19.1677 -5.90585 -19.5814 -2.69778C-20.0679 1.07426 -19.9002 4.46229 -19.4934 7.25133C-18.6801 12.8262 -16.5403 18.5338 -12.8405 23.6687L43.9529 -17.2522ZM43.6488 21.9184C43.7092 21.8344 43.0422 22.7829 42.15 23.8558C41.1846 25.0168 39.9036 26.404 38.2677 27.8315C34.8405 30.8219 30.9091 33.0712 26.7273 34.5128C19.012 37.1725 12.5134 36.3944 9.75851 35.9255L21.5025 -33.0823C18.4329 -33.6047 11.7455 -34.3652 3.91357 -31.6653C-0.326634 -30.2035 -4.29838 -27.9285 -7.75463 -24.9127C-9.40511 -23.4726 -10.6979 -22.0727 -11.673 -20.9C-12.5749 -19.8154 -13.2498 -18.856 -13.1961 -18.9307L43.6488 21.9184ZM9.70961 35.9172C4.20777 34.9728 0.20412 32.9027 -1.97656 31.5922C-4.30123 30.195 -5.97786 28.7954 -6.99162 27.8752C-8.97945 26.0709 -10.1814 24.4962 -10.6849 23.8057C-11.7593 22.3321 -12.3051 21.2098 -12.6389 20.4059L52.0078 -6.4418C50.4743 -10.1342 48.4192 -13.9479 45.8766 -17.4351C44.639 -19.1325 42.7132 -21.5446 40.0556 -23.9568C38.4132 -25.4477 31.9366 -31.2914 21.5514 -33.0739L9.70961 35.9172ZM-12.6221 20.4463C-6.63843 34.8038 7.11688 42.4325 20.3917 42.4325V-27.5675C33.0389 -27.5675 46.2335 -20.297 51.991 -6.48215L-12.6221 20.4463ZM20.3917 42.4325H21.417V-27.5675H20.3917V42.4325ZM21.417 42.4325C23.8434 42.4325 26.0975 42.1858 28.1368 41.7966L15.0145 -26.9624C16.9501 -27.3318 19.0971 -27.5675 21.417 -27.5675V42.4325ZM27.8395 41.8521C28.0034 41.8222 27.7552 41.8677 27.5824 41.8976C27.4068 41.928 27.2305 41.9569 27.0535 41.9842C26.7018 42.0384 26.3447 42.0865 25.9807 42.127C25.2765 42.2053 24.4354 42.2674 23.471 42.2674V-27.7326C21.3993 -27.7326 19.6181 -27.5969 18.2468 -27.4445C17.5493 -27.3669 16.9269 -27.2816 16.3914 -27.199C16.1225 -27.1576 15.8747 -27.1167 15.6496 -27.0778C15.4273 -27.0393 15.1517 -26.9887 15.3118 -27.0178L27.8395 41.8521ZM23.471 42.2674C22.5464 42.2674 21.2832 42.2108 19.7695 41.9696C18.268 41.7304 16.2079 41.2602 13.8522 40.2828L40.6795 -24.3724C33.5723 -27.3214 27.1354 -27.7326 23.471 -27.7326V42.2674ZM13.8635 40.2875C19.2751 42.5307 25.2812 43.6945 31.536 43.3459L27.6415 -26.5457C32.6049 -26.8222 37.0603 -25.8727 40.6682 -24.3771L13.8635 40.2875ZM5.38846 -16.8852C6.59875 -18.0435 8.09752 -19.274 9.9147 -20.4252L47.3757 38.7075C49.9117 37.1009 52.0364 35.3629 53.789 33.6854L5.38846 -16.8852ZM9.90489 -20.419C18.7391 -26.0196 27.4318 -25.2406 31.679 -24.1254L13.9006 43.5794C22.7752 45.9097 35.4078 46.2948 47.3855 38.7013L9.90489 -20.419ZM31.731 -24.1117C19.5172 -27.3389 5.79114 -23.9657 -3.56543 -13.95L47.5865 33.8358C38.6148 43.4395 25.4969 46.6435 13.8486 43.5657L31.731 -24.1117ZM-3.56543 -13.95C-13.3748 -3.44957 -16.1361 12.2369 -9.71133 25.7332L53.4926 -4.35435C59.6799 8.64311 57.0111 23.7473 47.5865 33.8358L-3.56543 -13.95ZM-9.63365 25.8953C-7.5337 30.2488 -5.00403 33.2433 -3.49184 34.8691C-2.75258 35.6639 -2.11991 36.2738 -1.77954 36.5968C-1.45659 36.9033 -1.15219 37.1812 -1.12752 37.2038L46.1913 -14.3803C45.712 -14.8201 46.7252 -13.9221 47.7639 -12.8054C49.0636 -11.408 51.4311 -8.62941 53.415 -4.51646L-9.63365 25.8953ZM-1.09456 37.234C-0.853514 37.4546 -5.99546 33.1728 -8.59254 25.4891L57.7218 3.07475C54.1383 -7.52739 47.0803 -13.567 46.1584 -14.4105L-1.09456 37.234ZM37.3769 -18.2887C30.8472 -20.8573 25.0094 -21.0053 24.5619 -21.0309L20.563 48.8548C21.1522 48.8885 16.7585 48.8218 11.7523 46.8526L37.3769 -18.2887ZM24.5424 -21.032C24.2781 -21.047 24.7989 -21.0216 25.4246 -20.9638C25.7646 -20.9324 26.5038 -20.8593 27.45 -20.7118C27.9394 -20.6355 28.6363 -20.5159 29.4689 -20.3339C30.2594 -20.1612 31.5031 -19.8611 32.9953 -19.3648L10.9045 47.058C13.6481 47.9705 15.8989 48.3329 16.6643 48.4523C17.697 48.6133 18.5362 48.6979 18.9846 48.7393C19.4757 48.7847 19.8798 48.8125 20.106 48.8272C20.3333 48.842 20.5355 48.8533 20.5824 48.8559L24.5424 -21.032ZM32.6641 -19.4731L32.5898 -19.497L11.1613 47.1424L11.2356 47.1663L32.6641 -19.4731ZM32.774 -19.4372C33.8016 -19.1005 37.9818 -17.6976 42.5176 -13.9583C47.6711 -9.70966 54.9127 -0.815041 54.9127 12.5022H-15.0873C-15.0873 26.0726 -7.71838 35.3476 -2.01053 40.0533C3.07957 44.2496 8.24123 46.1862 10.9771 47.0826L32.774 -19.4372ZM54.9127 12.5022C54.9127 -10.0313 35.9553 -23.201 19.148 -23.201V46.799C3.17727 46.799 -15.0873 34.2594 -15.0873 12.5022H54.9127ZM19.148 -23.201C1.91889 -23.201 -16.6099 -9.64242 -16.6099 12.5022H53.3901C53.3901 33.8706 35.5404 46.799 19.148 46.799V-23.201ZM-16.6099 12.5022C-16.6099 3.61952 -13.2486 -2.73689 -11.5571 -5.50423C-9.67119 -8.58969 -7.71358 -10.68 -6.65809 -11.7344C-4.53023 -13.8601 -2.66116 -15.1264 -1.98745 -15.5724C-0.910927 -16.285 1.24531 -17.6243 4.6942 -18.7653L26.6817 47.6918C30.9142 46.2914 34.4215 44.2737 36.6532 42.7963C37.9045 41.9679 40.3022 40.2977 42.8142 37.7882C44.0618 36.5419 46.1754 34.2647 48.1693 31.0026C49.9688 28.0586 53.3901 21.5358 53.3901 12.5022H-16.6099ZM4.45884 -18.6866C4.84229 -18.8164 5.13456 -18.907 5.22403 -18.9346C5.27238 -18.9495 5.30597 -18.9597 5.28609 -18.9536C5.28466 -18.9532 5.2151 -18.9321 5.14948 -18.912L25.6598 48.0158C25.6434 48.0208 25.6227 48.0271 25.6696 48.0129C25.698 48.0042 25.7794 47.9795 25.875 47.9499C26.059 47.8931 26.4436 47.7734 26.9171 47.613L4.45884 -18.6866ZM5.31358 -18.9618C4.59626 -18.7458 0.515019 -17.5957 -4.0497 -14.885L31.6923 45.3023C30.0833 46.2578 28.5685 46.9483 27.2849 47.4438C26.1433 47.8845 25.1846 48.1593 25.4957 48.0657L5.31358 -18.9618ZM46.759 27.0455C44.6849 32.8169 41.1506 36.2996 41.6105 35.7999L-9.89945 -11.5998C-10.5901 -10.8493 -15.986 -5.33897 -19.1164 3.37178L46.759 27.0455ZM41.6622 35.7435C41.6845 35.7192 41.8956 35.4896 42.1103 35.25C42.3359 34.9982 42.7636 34.5161 43.2659 33.9035C44.1999 32.7642 46.1816 30.2372 47.9312 26.6131L-15.1075 -3.81919C-13.4572 -7.23785 -11.616 -9.56347 -10.8666 -10.4775C-10.2113 -11.2769 -9.57269 -11.9566 -9.95118 -11.5434L41.6622 35.7435ZM48.0057 26.4578C54.4396 12.9609 51.6842 -2.73526 41.8682 -13.2427L-9.28379 34.543C-18.7149 24.4475 -21.378 9.33366 -15.182 -3.66389L48.0057 26.4578ZM41.8262 -13.2875C34.6843 -20.9058 25.042 -24.5924 15.719 -24.5924V45.4076C6.83005 45.4076 -2.39243 41.894 -9.24184 34.5878L41.8262 -13.2875ZM15.719 -24.5924C12.777 -24.5924 9.67083 -24.2296 6.50844 -23.3878L24.5163 44.2563C21.4901 45.0619 18.5231 45.4076 15.719 45.4076V-24.5924ZM6.61942 -23.4171C9.11442 -24.0726 12.8895 -24.6274 17.467 -23.942C22.2419 -23.2271 26.8576 -21.3061 30.7855 -18.3239L-11.5432 37.428C0.474549 46.5523 14.1752 46.9731 24.4054 44.2856L6.61942 -23.4171ZM9.62113 -25.4479H9.62024V44.5521H9.62113V-25.4479ZM30.8155 -18.3004C33.0043 -16.6348 34.6242 -14.9074 35.7816 -13.4578L-18.9197 30.2202C-17.121 32.4728 -14.7159 35.0144 -11.575 37.4045L30.8155 -18.3004ZM4.07185 43.1087C11.4172 44.0307 18.3934 42.7952 24.4462 40.2848L-2.37128 -24.3744C1.62336 -26.0312 6.86704 -27.0898 12.7901 -26.3463L4.07185 43.1087ZM24.4501 40.2832C24.7111 40.1749 24.891 40.1003 25.0079 40.0518C25.0663 40.0275 25.1094 40.0097 25.1391 39.9973C25.154 39.9912 25.166 39.9862 25.1751 39.9824C25.1797 39.9805 25.184 39.9787 25.1879 39.9771C25.1899 39.9763 25.1921 39.9753 25.1944 39.9744C25.1964 39.9735 25.1998 39.9721 25.2038 39.9705C25.2058 39.9696 25.2091 39.9683 25.2132 39.9666C25.2151 39.9658 25.2193 39.9641 25.2216 39.9631C25.2248 39.9617 25.2325 39.9585 25.237 39.9567C25.2439 39.9538 25.2628 39.9459 25.2747 39.9409C25.3008 39.93 25.4262 39.8772 25.5255 39.8349C44.1983 -5.52968 -1.14121 -24.8804 -1.45265 -24.755C-1.49303 -24.7385 -1.5492 -24.7154 -1.56504 -24.7089C-1.57355 -24.7054 -1.58732 -24.6997 -1.59263 -24.6975C-1.59629 -24.696 -1.60255 -24.6934 -1.60523 -24.6923C-1.61075 -24.69 -1.61518 -24.6882 -1.61744 -24.6872C-1.62217 -24.6853 -1.62613 -24.6836 -1.62811 -24.6828C-1.6325 -24.681 -1.6369 -24.6792 -1.64031 -24.6777C-1.64404 -24.6762 -1.64818 -24.6745 -1.65255 -24.6727C-1.66973 -24.6655 -1.69553 -24.6548 -1.72693 -24.6418C-1.79017 -24.6156 -1.87979 -24.5784 -1.97734 -24.5379C-2.07497 -24.4974 -2.18089 -24.4535 -2.27685 -24.4137C-2.37263 -24.374 -2.45911 -24.3381 -2.51758 -24.3138C-2.53224 -24.3077 -2.54538 -24.3023 -2.55661 -24.2976C-2.5676 -24.2931 -2.57767 -24.2889 -2.58584 -24.2855C-2.58979 -24.2838 -2.59464 -24.2818 -2.59952 -24.2798C-2.6019 -24.2788 -2.6056 -24.2773 -2.60991 -24.2755C-2.6121 -24.2746 -2.61528 -24.2733 -2.61908 -24.2717C-2.62075 -24.271 -2.62432 -24.2695 -2.62631 -24.2687C-2.62877 -24.2676 -2.63425 -24.2654 -2.63735 -24.2641C-2.64142 -24.2624 -2.65106 -24.2584 -2.65668 -24.256C-2.66496 -24.2526 -2.68669 -24.2435 -2.70019 -24.2378C-2.72607 -24.227 -2.82264 -24.1862 -2.89329 -24.1562C-3.84353 -23.7347 -21.1188 22.3533 23.8133 40.5442C23.9274 40.4983 24.0753 40.4382 24.1092 40.4243C24.1254 40.4176 24.1512 40.4071 24.1608 40.4031C24.1671 40.4005 24.1778 40.3961 24.1823 40.3942C24.1857 40.3928 24.1916 40.3904 24.1942 40.3893C24.2 40.3869 24.2046 40.385 24.2074 40.3839C24.2104 40.3826 24.213 40.3815 24.2149 40.3808C24.2186 40.3792 24.222 40.3778 24.2244 40.3768C24.2292 40.3748 24.2342 40.3728 24.2387 40.3709C24.2434 40.3689 24.2487 40.3667 24.2544 40.3644C24.2659 40.3596 24.2804 40.3536 24.2979 40.3464C24.3329 40.3318 24.3817 40.3116 24.4462 40.2848L-2.37128 -24.3744C-2.43537 -24.3479 -2.48285 -24.3282 -2.51625 -24.3143C-2.53297 -24.3074 -2.54578 -24.3021 -2.55518 -24.2982C-2.55987 -24.2962 -2.56343 -24.2948 -2.56603 -24.2937C-2.56885 -24.2925 -2.56966 -24.2922 -2.56918 -24.2924C-2.56896 -24.2925 -2.56744 -24.2931 -2.56513 -24.2941C-2.56394 -24.2945 -2.562 -24.2954 -2.55955 -24.2964C-2.55734 -24.2973 -2.55314 -24.299 -2.54779 -24.3012C-2.54533 -24.3022 -2.53956 -24.3046 -2.53635 -24.306C-2.53199 -24.3078 -2.52138 -24.3121 -2.51518 -24.3147C-2.50571 -24.3186 -2.48005 -24.3291 -2.4639 -24.3358C-2.43006 -24.3496 -2.2822 -24.4097 -2.16806 -24.4556C42.764 -6.26473 25.4887 39.8233 24.5385 40.2448C24.4679 40.2748 24.3714 40.3155 24.3455 40.3263C24.3321 40.332 24.3105 40.341 24.3023 40.3444C24.2968 40.3467 24.2873 40.3507 24.2833 40.3523C24.2804 40.3535 24.2751 40.3558 24.2728 40.3567C24.271 40.3574 24.2677 40.3588 24.2662 40.3594C24.2629 40.3608 24.2602 40.3619 24.2587 40.3626C24.2556 40.3639 24.2535 40.3647 24.2529 40.365C24.2518 40.3654 24.2519 40.3654 24.2541 40.3645C24.2582 40.3628 24.2651 40.3599 24.2752 40.3557C24.285 40.3516 24.2971 40.3467 24.3111 40.3408C24.3674 40.3175 24.4522 40.2823 24.5477 40.2427C24.643 40.2031 24.7483 40.1594 24.8454 40.1191C24.9426 40.0788 25.0312 40.0421 25.0931 40.0164C25.1243 40.0035 25.1478 39.9937 25.1622 39.9878C25.1657 39.9863 25.1683 39.9852 25.1701 39.9845C25.1723 39.9836 25.1723 39.9836 25.171 39.9841C25.1706 39.9842 25.1679 39.9854 25.1641 39.9869C25.1623 39.9877 25.1583 39.9894 25.1531 39.9915C25.1505 39.9926 25.1444 39.9951 25.1409 39.9966C25.1357 39.9987 25.122 40.0044 25.1135 40.0078C25.0978 40.0143 25.0416 40.0374 25.0013 40.0539C24.6899 40.1793 -20.6496 20.8286 -1.97685 -24.536C-1.87756 -24.5783 -1.75216 -24.6311 -1.72618 -24.642C-1.71428 -24.6469 -1.69552 -24.6548 -1.68869 -24.6576C-1.68428 -24.6595 -1.67675 -24.6626 -1.67369 -24.6639C-1.67145 -24.6648 -1.66743 -24.6665 -1.66573 -24.6672C-1.66205 -24.6687 -1.65919 -24.6699 -1.65775 -24.6705C-1.65485 -24.6717 -1.65286 -24.6725 -1.65263 -24.6726C-1.65213 -24.6728 -1.65207 -24.6729 -1.65264 -24.6726C-1.65377 -24.6722 -1.65594 -24.6713 -1.65945 -24.6698C-1.66641 -24.6669 -1.6767 -24.6626 -1.6909 -24.6567C-1.71919 -24.645 -1.76112 -24.6276 -1.81921 -24.6035C-1.93528 -24.5553 -2.11447 -24.481 -2.37521 -24.3728L24.4501 40.2832ZM19.4026 -0.406259C22.8918 -0.406259 26.9834 0.770692 30.6846 3.8842C34.4521 7.05355 38.4865 13.0297 38.4865 21.2044H-31.5135C-31.5135 53.3436 -2.78892 69.5937 19.4026 69.5937V-0.406259ZM38.4865 21.2044C38.4865 30.0097 33.8041 36.3828 29.3994 39.5104L-11.1276 -17.5647C-22.7277 -9.32784 -31.5135 4.44948 -31.5135 21.2044H38.4865ZM-9.75721 40.4356C-3.38194 44.5237 3.67732 46.6279 10.5382 47.0602L14.9403 -22.8013C19.2207 -22.5316 23.7842 -21.2119 28.029 -18.4898L-9.75721 40.4356ZM10.5536 47.0611C12.5064 47.1833 14.3786 47.1682 16.1488 47.0535L11.6241 -22.8001C12.6311 -22.8653 13.7358 -22.8766 14.9248 -22.8022L10.5536 47.0611ZM-13.5259 -9.63486C-16.8689 -5.42382 -22.3881 3.03632 -23.0321 15.2277L46.8704 18.9206C46.4626 26.6399 42.9323 31.8305 41.2987 33.8883L-13.5259 -9.63486ZM-23.0316 15.2179C-23.937 32.2653 -13.0215 45.7055 0.315253 50.6109L24.4793 -15.0861C37.2126 -10.4026 47.7433 2.48503 46.8699 18.9303L-23.0316 15.2179ZM0.308444 50.6084C4.43883 52.1286 8.64114 52.8116 12.6762 52.8116V-17.1884C16.5235 -17.1884 20.5363 -16.5373 24.4861 -15.0836L0.308444 50.6084ZM12.6762 52.8116C17.9419 52.8116 23.3185 51.6483 28.3439 49.2026L-2.28816 -13.7393C2.52054 -16.0795 7.65612 -17.1884 12.6762 -17.1884V52.8116ZM28.6252 49.0641C29.3527 48.702 29.9296 48.3833 30.2793 48.1858C30.5854 48.0129 30.8694 47.8453 30.7913 47.891L-4.59646 -12.5052C-4.69701 -12.4463 -4.4357 -12.6005 -4.15267 -12.7604C-3.82609 -12.9449 -3.27268 -13.2508 -2.56942 -13.6008L28.6252 49.0641ZM31.8167 47.2664C34.2746 45.7106 36.7144 43.7464 38.9601 41.3157L-12.4544 -6.18746C-10.301 -8.51816 -7.96606 -10.3967 -5.62179 -11.8806L31.8167 47.2664ZM39.0324 41.2373C37.5174 42.887 35.1544 45.0165 31.8379 46.8759C28.5982 48.6922 25.6834 49.4874 25.9573 49.405L5.7887 -17.6265C5.36147 -17.498 1.6987 -16.4775 -2.3947 -14.1825C-6.56497 -11.8444 -9.88752 -8.98296 -12.5266 -6.10904L39.0324 41.2373ZM25.9634 49.4032C26.1453 49.3484 26.5577 49.2239 27.054 49.062L5.3439 -17.4862C5.49147 -17.5344 5.60952 -17.5714 5.68444 -17.5946C5.75506 -17.6165 5.79841 -17.6295 5.78259 -17.6247L25.9634 49.4032ZM27.8169 48.8034C29.213 48.3121 31.1543 47.5213 33.2746 46.4319C35.0498 45.5197 39.5432 43.1115 43.8852 38.7733L-5.59101 -10.7455C-3.75583 -12.5791 -2.10407 -13.7627 -1.14575 -14.4C-0.121784 -15.081 0.730889 -15.5463 1.28316 -15.83C1.86079 -16.1268 2.36218 -16.3539 2.76391 -16.5256C2.97399 -16.6154 3.18322 -16.7013 3.3932 -16.7845C3.49825 -16.8261 3.60994 -16.8697 3.7289 -16.9151C3.78739 -16.9375 3.85642 -16.9637 3.93478 -16.993C3.97265 -17.0072 4.02567 -17.027 4.08952 -17.0505C4.12073 -17.062 4.16835 -17.0795 4.22663 -17.1008C4.2579 -17.1121 4.39939 -17.1637 4.58101 -17.2276L27.8169 48.8034ZM-4.13299 40.1489C-0.103305 43.7384 3.84891 45.7131 5.93889 46.6579C8.22063 47.6895 10.1727 48.3105 10.4691 48.4077L32.2724 -18.1101C32.1097 -18.1635 33.3103 -17.7888 34.7753 -17.1266C36.0484 -16.551 39.1184 -15.0685 42.4272 -12.1211L-4.13299 40.1489ZM10.423 48.3925L10.4913 48.415L32.387 -18.0724L32.3186 -18.095L10.423 48.3925ZM10.4706 48.4082C13.5973 49.44 16.2449 49.8442 17.7971 50.0289C18.5989 50.1244 19.2631 50.1779 19.6816 50.2081C20.0728 50.2363 20.4257 50.2558 20.4675 50.2582L24.4708 -19.6272C24.0645 -19.6505 24.9857 -19.6095 26.069 -19.4806C27.2768 -19.3369 29.5939 -18.9942 32.4077 -18.0656L10.4706 48.4082ZM20.4798 50.2589C21.3864 50.3105 17.7282 50.2497 13.556 48.9794C8.41905 47.4154 3.35126 44.4479 -0.731448 40.0012L50.8312 -7.34107C39.7471 -19.4133 25.6742 -19.5587 24.4585 -19.6279L20.4798 50.2589ZM-0.768622 39.9607C9.46726 51.1443 24.9452 54.1503 37.9348 49.3962L13.8762 -16.3395C26.2624 -20.8727 41.0523 -18.0254 50.8684 -7.30052L-0.768622 39.9607ZM38.0138 49.3672C51.314 44.4631 62.2412 31.0428 61.3343 13.9822L-8.56703 17.698C-9.44195 1.23883 1.1003 -11.6289 13.7972 -16.3104L38.0138 49.3672ZM61.3352 13.9987C60.7203 2.32814 55.6203 -6.14311 51.265 -11.2506L-1.99894 34.1691C-4.75552 30.9365 -8.16799 25.2722 -8.56791 17.6815L61.3352 13.9987ZM22.3592 46.3853C27.6319 46.7286 34.0331 46.2028 40.6805 43.6574L15.6489 -21.7139C20.067 -23.4057 24.0305 -23.654 26.9068 -23.4668L22.3592 46.3853ZM40.674 43.66C42.2636 43.0516 44.0247 42.2703 45.8713 41.2591L12.2487 -20.1373C13.5215 -20.8344 14.6816 -21.3438 15.6555 -21.7164L40.674 43.66ZM10.1123 39.9885C7.96913 38.6086 5.68476 36.5254 3.8057 33.5105L63.212 -3.51508C59.1835 -9.97858 53.8356 -15.1143 48.0076 -18.8668L10.1123 39.9885ZM3.80263 33.5056C1.66082 30.0678 0.318645 25.8358 0.318645 21.2042H70.3186C70.3186 12.2511 67.7242 3.7272 63.2151 -3.51015L3.80263 33.5056ZM0.318645 21.2042C0.318645 13.03 4.35271 7.05385 8.12042 3.88432C11.8217 0.770703 15.9134 -0.406259 19.4026 -0.406259V69.5937C41.5946 69.5937 70.3186 53.3432 70.3186 21.2042H0.318645Z" fill="white" mask="url(#path-1-inside-1)"/>
<path d="M19.4023 33.1815C11.629 33.1815 5.30518 27.8086 5.30518 21.2045C5.30518 20.8161 5.64446 20.5013 6.06308 20.5013C6.48171 20.5013 6.82099 20.8161 6.82099 21.2045C6.82099 27.0333 12.465 31.7752 19.4023 31.7752C19.8209 31.7752 20.1602 32.09 20.1602 32.4784C20.1602 32.8667 19.8209 33.1815 19.4023 33.1815Z" fill="white"/>
<path d="M22.5351 32.8724C22.1164 32.8724 21.7769 32.5577 21.7769 32.1693C21.7769 31.7809 22.1158 31.4662 22.5342 31.4662H22.5351C22.9537 31.4662 23.293 31.7809 23.293 32.1693C23.293 32.5577 22.9537 32.8724 22.5351 32.8724Z" fill="white"/>
</g>
<defs>
<clipPath id="clip0">
<rect width="37" height="36" fill="white"/>
</clipPath>
</defs>
</svg>
