<svg width="55" height="48" viewBox="0 0 55 48" fill="none" xmlns="http://www.w3.org/2000/svg">
<path d="M5.15625 0C4.13644 0 3.13953 0.324825 2.29159 0.933399C1.44365 1.54197 0.782763 2.40696 0.392498 3.41898C0.00223413 4.43101 -0.0998768 5.5446 0.0990782 6.61896C0.298033 7.69332 0.789118 8.68018 1.51023 9.45475C2.23135 10.2293 3.1501 10.7568 4.15032 10.9705C5.15053 11.1842 6.18728 11.0745 7.12946 10.6553C8.07165 10.2361 8.87694 9.52626 9.44352 8.61547C10.0101 7.70467 10.3125 6.63387 10.3125 5.53846C10.3125 4.06957 9.76926 2.66084 8.80227 1.62218C7.83529 0.583515 6.52378 0 5.15625 0ZM5.15625 18.4615C4.13644 18.4615 3.13953 18.7864 2.29159 19.3949C1.44365 20.0035 0.782763 20.8685 0.392498 21.8805C0.00223413 22.8925 -0.0998768 24.0061 0.0990782 25.0805C0.298033 26.1549 0.789118 27.1417 1.51023 27.9163C2.23135 28.6909 3.1501 29.2183 4.15032 29.432C5.15053 29.6457 6.18728 29.5361 7.12946 29.1169C8.07165 28.6977 8.87694 27.9878 9.44352 27.077C10.0101 26.1662 10.3125 25.0954 10.3125 24C10.3125 22.5311 9.76926 21.1224 8.80227 20.0837C7.83529 19.0451 6.52378 18.4615 5.15625 18.4615ZM5.15625 36.9231C4.13644 36.9231 3.13953 37.2479 2.29159 37.8565C1.44365 38.465 0.782763 39.33 0.392498 40.3421C0.00223413 41.3541 -0.0998768 42.4677 0.0990782 43.542C0.298033 44.6164 0.789118 45.6033 1.51023 46.3778C2.23135 47.1524 3.1501 47.6799 4.15032 47.8936C5.15053 48.1073 6.18728 47.9976 7.12946 47.5784C8.07165 47.1592 8.87694 46.4493 9.44352 45.5385C10.0101 44.6277 10.3125 43.5569 10.3125 42.4615C10.3125 40.9926 9.76926 39.5839 8.80227 38.5452C7.83529 37.5066 6.52378 36.9231 5.15625 36.9231ZM53.2813 38.7692H18.9063C18.4504 38.7692 18.0132 38.9637 17.6909 39.31C17.3686 39.6562 17.1875 40.1258 17.1875 40.6154V44.3077C17.1875 44.7973 17.3686 45.2669 17.6909 45.6131C18.0132 45.9593 18.4504 46.1538 18.9063 46.1538H53.2813C53.7371 46.1538 54.1743 45.9593 54.4966 45.6131C54.8189 45.2669 55 44.7973 55 44.3077V40.6154C55 40.1258 54.8189 39.6562 54.4966 39.31C54.1743 38.9637 53.7371 38.7692 53.2813 38.7692ZM53.2813 1.84615H18.9063C18.4504 1.84615 18.0132 2.04066 17.6909 2.38688C17.3686 2.7331 17.1875 3.20268 17.1875 3.69231V7.38461C17.1875 7.87425 17.3686 8.34382 17.6909 8.69004C18.0132 9.03626 18.4504 9.23077 18.9063 9.23077H53.2813C53.7371 9.23077 54.1743 9.03626 54.4966 8.69004C54.8189 8.34382 55 7.87425 55 7.38461V3.69231C55 3.20268 54.8189 2.7331 54.4966 2.38688C54.1743 2.04066 53.7371 1.84615 53.2813 1.84615ZM53.2813 20.3077H18.9063C18.4504 20.3077 18.0132 20.5022 17.6909 20.8484C17.3686 21.1946 17.1875 21.6642 17.1875 22.1538V25.8462C17.1875 26.3358 17.3686 26.8054 17.6909 27.1516C18.0132 27.4978 18.4504 27.6923 18.9063 27.6923H53.2813C53.7371 27.6923 54.1743 27.4978 54.4966 27.1516C54.8189 26.8054 55 26.3358 55 25.8462V22.1538C55 21.6642 54.8189 21.1946 54.4966 20.8484C54.1743 20.5022 53.7371 20.3077 53.2813 20.3077Z" fill="white"/>
</svg>
