<svg width="50" height="48" viewBox="0 0 50 48" fill="none" xmlns="http://www.w3.org/2000/svg">
<path d="M50 13.8183V11.5367L46.8192 10.5941L46.5737 9.48003L48.817 7.26266L47.6562 5.18456L44.4196 5.98795L43.6161 5.18456L44.4531 2.1638L42.3214 0.921223L39.9442 3.17072L38.75 2.82794L37.9688 0H35.4464L34.7545 2.82794L33.404 3.17072L31.2054 0.921223L29.0402 2.09953L29.9442 5.06673L29.0402 5.96652L25.8594 5.16313L24.6317 7.20911L26.942 9.4586L26.6183 10.5726L23.4375 11.4082L23.404 13.7326L26.6183 14.536L26.8862 15.8322L24.6429 17.9638L25.8036 19.9455L29.1071 19.1422L29.9107 20.0634L29.0067 22.9449L31.2277 24.1875L33.3929 22.0022L34.6875 22.3129L35.4353 25.3658L37.9576 25.3979L38.7054 22.3129L40 21.938L42.3103 24.2517L44.5871 22.9556L43.6049 19.9563L44.4754 19.0886L47.6897 20.0312L48.8393 17.8782L46.5067 15.8643L46.7522 14.5682L50 13.8183ZM36.6964 18.6601C33.2031 18.6601 30.3571 15.9393 30.3571 12.5758C30.3571 9.21223 33.192 6.49141 36.6964 6.49141C40.2009 6.49141 43.0357 9.21223 43.0357 12.5758C43.0357 15.95 40.2009 18.6601 36.6964 18.6601ZM44.7656 20.4169L50 21.9701V26.2441L43.8504 27.6795L43.3929 30.1111L47.7344 33.8924L45.5915 37.9522L39.5647 36.1634L37.9353 37.7916L39.7991 43.4153L35.5246 45.8469L31.183 41.5086L28.7612 42.2156L27.3549 48L22.6228 47.9464L21.2165 42.2049L18.7946 41.605L14.7321 45.7184L10.558 43.3939L12.2545 37.9844L10.7254 36.2598L4.53125 37.7701L2.33259 34.0424L6.5625 30.0361L6.02679 27.5938L0 26.0835L0.0558036 21.7023L6.02679 20.1276L6.66295 18.0174L2.32143 13.7969L4.6317 9.96206L10.6138 11.4724L12.3103 9.79067L10.6138 4.22049L14.6763 2.00312L18.7835 6.22361L21.317 5.57019L22.6116 0H27.3438L28.6384 4.91676L26.1161 4.28476L25.4129 4.10266L25.0446 4.71323L23.817 6.7592L23.4487 7.35907L23.9621 7.85182L25.8817 9.71569L25.8482 9.82281L23.192 10.5191L22.5 10.7012L22.4888 11.3867L22.4665 12.7686C17.1652 13.8826 13.1696 18.4245 13.1696 23.8554C13.1696 30.1004 18.4487 35.1779 24.9665 35.1779C30.6027 35.1779 35.3125 31.3859 36.4844 26.3084L37.9576 26.3298L38.7277 26.3405L38.9062 25.6229L39.5312 23.052L39.7433 22.9877L41.6518 24.8944L42.1763 25.4193L42.8237 25.0551L45.1004 23.759L45.7478 23.3841L45.5246 22.6878L44.7656 20.4169Z" fill="white"/>
</svg>
