<svg width="15" height="16" viewBox="0 0 15 16" fill="none" xmlns="http://www.w3.org/2000/svg">
<path d="M14.058 1.00001H10.1937L9.89098 0.41563C9.82686 0.290697 9.72808 0.185606 9.60577 0.11218C9.48345 0.0387537 9.34245 -9.46239e-05 9.19863 5.47897e-06H5.51787C5.37437 -0.00052985 5.23362 0.0381736 5.11174 0.111682C4.98985 0.18519 4.89178 0.290529 4.82874 0.41563L4.52603 1.00001H0.661725C0.525075 1.00001 0.394021 1.05268 0.297395 1.14645C0.200769 1.24022 0.146484 1.3674 0.146484 1.5L0.146484 2.5C0.146484 2.63261 0.200769 2.75979 0.297395 2.85356C0.394021 2.94733 0.525075 3 0.661725 3H14.058C14.1946 3 14.3257 2.94733 14.4223 2.85356C14.519 2.75979 14.5732 2.63261 14.5732 2.5V1.5C14.5732 1.3674 14.519 1.24022 14.4223 1.14645C14.3257 1.05268 14.1946 1.00001 14.058 1.00001ZM1.85966 14.5938C1.88424 14.9746 2.05744 15.332 2.34401 15.5932C2.63057 15.8545 3.00897 16 3.40216 16H11.3176C11.7107 16 12.0891 15.8545 12.3757 15.5932C12.6623 15.332 12.8355 14.9746 12.8601 14.5938L13.5428 4H1.17697L1.85966 14.5938Z" fill="white"/>
</svg>
